<?xml version="1.0" encoding="UTF-8" standalone="no"?>
<!DOCTYPE svg PUBLIC "-//W3C//DTD SVG 1.1//EN"
 "http://www.w3.org/Graphics/SVG/1.1/DTD/svg11.dtd">
<!-- Generated by graphviz version 2.43.0 (0)
 -->
<!-- Title: G Pages: 1 -->
<svg width="177pt" height="501pt"
 viewBox="0.00 0.00 177.37 501.41" xmlns="http://www.w3.org/2000/svg" xmlns:xlink="http://www.w3.org/1999/xlink">
<g id="graph0" class="graph" transform="scale(1 1) rotate(0) translate(4 497.41)">
<title>G</title>
<polygon fill="white" stroke="transparent" points="-4,4 -4,-497.41 173.37,-497.41 173.37,4 -4,4"/>
<!-- 0 -->
<g id="node1" class="node">
<title>0</title>
<ellipse fill="black" stroke="black" cx="38.18" cy="-491.61" rx="1.8" ry="1.8"/>
</g>
<!-- 1 -->
<g id="node2" class="node">
<title>1</title>
<ellipse fill="none" stroke="black" cx="38.18" cy="-415.34" rx="38.37" ry="37.45"/>
<text text-anchor="middle" x="38.18" y="-426.64" font-family="Times,serif" font-size="14.00">0</text>
<text text-anchor="middle" x="38.18" y="-411.64" font-family="Times,serif" font-size="14.00">&#45;&#45;&#45;</text>
<text text-anchor="middle" x="38.18" y="-396.64" font-family="Times,serif" font-size="14.00">False</text>
</g>
<!-- 0&#45;&gt;1 -->
<g id="edge1" class="edge">
<title>0&#45;&gt;1</title>
<path fill="none" stroke="black" d="M38.18,-489.78C38.18,-486.74 38.18,-475.75 38.18,-463.16"/>
<polygon fill="black" stroke="black" points="41.68,-462.85 38.18,-452.85 34.68,-462.85 41.68,-462.85"/>
</g>
<!-- 3 -->
<g id="node3" class="node">
<title>3</title>
<ellipse fill="none" stroke="black" cx="76.18" cy="-37.48" rx="38.37" ry="37.45"/>
<text text-anchor="middle" x="76.18" y="-48.78" font-family="Times,serif" font-size="14.00">2</text>
<text text-anchor="middle" x="76.18" y="-33.78" font-family="Times,serif" font-size="14.00">&#45;&#45;&#45;</text>
<text text-anchor="middle" x="76.18" y="-18.78" font-family="Times,serif" font-size="14.00">False</text>
</g>
<!-- 1&#45;&gt;3 -->
<g id="edge2" class="edge">
<title>1&#45;&gt;3</title>
<path fill="none" stroke="black" d="M35.63,-377.75C34.65,-362.09 33.66,-343.59 33.18,-326.86 32.23,-293.56 29.88,-285.06 33.18,-251.91 40.33,-180.2 50.94,-163.6 65.18,-92.95 65.75,-90.16 66.33,-87.29 66.91,-84.39"/>
<polygon fill="black" stroke="black" points="70.36,-85.01 68.9,-74.52 63.49,-83.63 70.36,-85.01"/>
<text text-anchor="middle" x="41.18" y="-222.71" font-family="Times,serif" font-size="14.00">b</text>
</g>
<!-- 2 -->
<g id="node4" class="node">
<title>2</title>
<ellipse fill="none" stroke="black" cx="80.18" cy="-289.38" rx="38.37" ry="37.45"/>
<text text-anchor="middle" x="80.18" y="-300.68" font-family="Times,serif" font-size="14.00">1</text>
<text text-anchor="middle" x="80.18" y="-285.68" font-family="Times,serif" font-size="14.00">&#45;&#45;&#45;</text>
<text text-anchor="middle" x="80.18" y="-270.68" font-family="Times,serif" font-size="14.00">False</text>
</g>
<!-- 1&#45;&gt;2 -->
<g id="edge3" class="edge">
<title>1&#45;&gt;2</title>
<path fill="none" stroke="black" d="M49.99,-379.48C54.65,-365.75 60.05,-349.81 64.99,-335.23"/>
<polygon fill="black" stroke="black" points="68.42,-336 68.32,-325.41 61.79,-333.76 68.42,-336"/>
<text text-anchor="middle" x="65.68" y="-348.66" font-family="Times,serif" font-size="14.00">a</text>
</g>
<!-- 3&#45;&gt;3 -->
<g id="edge6" class="edge">
<title>3&#45;&gt;3</title>
<path fill="none" stroke="black" d="M114,-43.25C124.41,-42.97 132.37,-41.05 132.37,-37.48 132.37,-35.19 129.1,-33.58 124.02,-32.64"/>
<polygon fill="black" stroke="black" points="124.28,-29.15 114,-31.7 123.63,-36.12 124.28,-29.15"/>
<text text-anchor="middle" x="137.37" y="-33.78" font-family="Times,serif" font-size="14.00">b</text>
</g>
<!-- 3&#45;&gt;3 -->
<g id="edge7" class="edge">
<title>3&#45;&gt;3</title>
<path fill="none" stroke="black" d="M112.83,-48.62C132.47,-50.52 150.37,-46.8 150.37,-37.48 150.37,-29.83 138.32,-25.95 123.15,-25.85"/>
<polygon fill="black" stroke="black" points="122.65,-22.37 112.83,-26.33 122.98,-29.37 122.65,-22.37"/>
<text text-anchor="middle" x="154.87" y="-33.78" font-family="Times,serif" font-size="14.00">a</text>
</g>
<!-- 2&#45;&gt;3 -->
<g id="edge4" class="edge">
<title>2&#45;&gt;3</title>
<path fill="none" stroke="black" d="M74.62,-252.3C72.45,-236.56 70.25,-217.86 69.18,-200.91 66.74,-161.89 68.99,-117.54 71.57,-85.06"/>
<polygon fill="black" stroke="black" points="75.07,-85.2 72.41,-74.95 68.09,-84.62 75.07,-85.2"/>
<text text-anchor="middle" x="74.18" y="-159.73" font-family="Times,serif" font-size="14.00">b</text>
</g>
<!-- 4 -->
<g id="node5" class="node">
<title>4</title>
<ellipse fill="none" stroke="black" cx="123.18" cy="-163.43" rx="35.21" ry="37.45"/>
<text text-anchor="middle" x="123.18" y="-174.73" font-family="Times,serif" font-size="14.00">3</text>
<text text-anchor="middle" x="123.18" y="-159.73" font-family="Times,serif" font-size="14.00">&#45;&#45;&#45;</text>
<text text-anchor="middle" x="123.18" y="-144.73" font-family="Times,serif" font-size="14.00">True</text>
</g>
<!-- 2&#45;&gt;4 -->
<g id="edge5" class="edge">
<title>2&#45;&gt;4</title>
<path fill="none" stroke="black" d="M92.28,-253.53C97.13,-239.55 102.77,-223.27 107.9,-208.49"/>
<polygon fill="black" stroke="black" points="111.21,-209.62 111.18,-199.03 104.6,-207.33 111.21,-209.62"/>
<text text-anchor="middle" x="108.68" y="-222.71" font-family="Times,serif" font-size="14.00">a</text>
</g>
<!-- 4&#45;&gt;3 -->
<g id="edge8" class="edge">
<title>4&#45;&gt;3</title>
<path fill="none" stroke="black" d="M104.87,-131.05C100.99,-123.63 97.18,-115.64 94.18,-107.95 91.23,-100.36 88.61,-92.11 86.34,-84.04"/>
<polygon fill="black" stroke="black" points="89.71,-83.1 83.76,-74.33 82.95,-84.9 89.71,-83.1"/>
<text text-anchor="middle" x="99.18" y="-96.75" font-family="Times,serif" font-size="14.00">b</text>
</g>
<!-- 4&#45;&gt;3 -->
<g id="edge9" class="edge">
<title>4&#45;&gt;3</title>
<path fill="none" stroke="black" d="M114.91,-126.62C111.98,-115.66 108.35,-103.68 104.18,-92.95 102.54,-88.71 100.66,-84.37 98.67,-80.07"/>
<polygon fill="black" stroke="black" points="101.69,-78.29 94.19,-70.81 95.39,-81.34 101.69,-78.29"/>
<text text-anchor="middle" x="113.68" y="-96.75" font-family="Times,serif" font-size="14.00">a</text>
</g>
</g>
</svg>
