<?xml version="1.0" encoding="UTF-8" standalone="no"?>
<!DOCTYPE svg PUBLIC "-//W3C//DTD SVG 1.1//EN"
 "http://www.w3.org/Graphics/SVG/1.1/DTD/svg11.dtd">
<!-- Generated by graphviz version 2.43.0 (0)
 -->
<!-- Title: G Pages: 1 -->
<svg width="111pt" height="501pt"
 viewBox="0.00 0.00 111.37 501.41" xmlns="http://www.w3.org/2000/svg" xmlns:xlink="http://www.w3.org/1999/xlink">
<g id="graph0" class="graph" transform="scale(1 1) rotate(0) translate(4 497.41)">
<title>G</title>
<polygon fill="white" stroke="transparent" points="-4,4 -4,-497.41 107.37,-497.41 107.37,4 -4,4"/>
<!-- 0 -->
<g id="node1" class="node">
<title>0</title>
<ellipse fill="black" stroke="black" cx="38.18" cy="-491.61" rx="1.8" ry="1.8"/>
</g>
<!-- 1 -->
<g id="node2" class="node">
<title>1</title>
<ellipse fill="none" stroke="black" cx="38.18" cy="-415.34" rx="38.37" ry="37.45"/>
<text text-anchor="middle" x="38.18" y="-426.64" font-family="Times,serif" font-size="14.00">0</text>
<text text-anchor="middle" x="38.18" y="-411.64" font-family="Times,serif" font-size="14.00">&#45;&#45;&#45;</text>
<text text-anchor="middle" x="38.18" y="-396.64" font-family="Times,serif" font-size="14.00">False</text>
</g>
<!-- 0&#45;&gt;1 -->
<g id="edge1" class="edge">
<title>0&#45;&gt;1</title>
<path fill="none" stroke="black" d="M38.18,-489.78C38.18,-486.74 38.18,-475.75 38.18,-463.16"/>
<polygon fill="black" stroke="black" points="41.68,-462.85 38.18,-452.85 34.68,-462.85 41.68,-462.85"/>
</g>
<!-- 1&#45;&gt;1 -->
<g id="edge2" class="edge">
<title>1&#45;&gt;1</title>
<path fill="none" stroke="black" d="M75.2,-425.43C86,-425.08 94.37,-421.72 94.37,-415.34 94.37,-411.15 90.76,-408.26 85.23,-406.67"/>
<polygon fill="black" stroke="black" points="85.59,-403.19 75.2,-405.24 84.6,-410.12 85.59,-403.19"/>
<text text-anchor="middle" x="98.87" y="-411.64" font-family="Times,serif" font-size="14.00">a</text>
</g>
<!-- 2 -->
<g id="node3" class="node">
<title>2</title>
<ellipse fill="none" stroke="black" cx="38.18" cy="-289.38" rx="35.21" ry="37.45"/>
<text text-anchor="middle" x="38.18" y="-300.68" font-family="Times,serif" font-size="14.00">2</text>
<text text-anchor="middle" x="38.18" y="-285.68" font-family="Times,serif" font-size="14.00">&#45;&#45;&#45;</text>
<text text-anchor="middle" x="38.18" y="-270.68" font-family="Times,serif" font-size="14.00">True</text>
</g>
<!-- 1&#45;&gt;2 -->
<g id="edge3" class="edge">
<title>1&#45;&gt;2</title>
<path fill="none" stroke="black" d="M38.18,-377.82C38.18,-365.07 38.18,-350.58 38.18,-337.12"/>
<polygon fill="black" stroke="black" points="41.68,-337.07 38.18,-327.07 34.68,-337.07 41.68,-337.07"/>
<text text-anchor="middle" x="43.18" y="-348.66" font-family="Times,serif" font-size="14.00">b</text>
</g>
<!-- 2&#45;&gt;2 -->
<g id="edge4" class="edge">
<title>2&#45;&gt;2</title>
<path fill="none" stroke="black" d="M72.05,-301.01C82.92,-300.89 91.54,-297.01 91.54,-289.38 91.54,-284.38 87.83,-280.99 82.2,-279.22"/>
<polygon fill="black" stroke="black" points="82.45,-275.71 72.05,-277.76 81.45,-282.64 82.45,-275.71"/>
<text text-anchor="middle" x="96.04" y="-285.68" font-family="Times,serif" font-size="14.00">a</text>
</g>
<!-- 3 -->
<g id="node4" class="node">
<title>3</title>
<ellipse fill="none" stroke="black" cx="38.18" cy="-163.43" rx="38.37" ry="37.45"/>
<text text-anchor="middle" x="38.18" y="-174.73" font-family="Times,serif" font-size="14.00">3</text>
<text text-anchor="middle" x="38.18" y="-159.73" font-family="Times,serif" font-size="14.00">&#45;&#45;&#45;</text>
<text text-anchor="middle" x="38.18" y="-144.73" font-family="Times,serif" font-size="14.00">False</text>
</g>
<!-- 2&#45;&gt;3 -->
<g id="edge5" class="edge">
<title>2&#45;&gt;3</title>
<path fill="none" stroke="black" d="M38.18,-251.86C38.18,-239.12 38.18,-224.63 38.18,-211.17"/>
<polygon fill="black" stroke="black" points="41.68,-211.12 38.18,-201.12 34.68,-211.12 41.68,-211.12"/>
<text text-anchor="middle" x="43.18" y="-222.71" font-family="Times,serif" font-size="14.00">b</text>
</g>
<!-- 3&#45;&gt;3 -->
<g id="edge6" class="edge">
<title>3&#45;&gt;3</title>
<path fill="none" stroke="black" d="M74.66,-175.04C85.72,-174.75 94.37,-170.88 94.37,-163.43 94.37,-158.54 90.64,-155.2 84.96,-153.39"/>
<polygon fill="black" stroke="black" points="85.07,-149.87 74.66,-151.82 84.02,-156.79 85.07,-149.87"/>
<text text-anchor="middle" x="98.87" y="-159.73" font-family="Times,serif" font-size="14.00">a</text>
</g>
<!-- 4 -->
<g id="node5" class="node">
<title>4</title>
<ellipse fill="none" stroke="black" cx="38.18" cy="-37.48" rx="35.21" ry="37.45"/>
<text text-anchor="middle" x="38.18" y="-48.78" font-family="Times,serif" font-size="14.00">4</text>
<text text-anchor="middle" x="38.18" y="-33.78" font-family="Times,serif" font-size="14.00">&#45;&#45;&#45;</text>
<text text-anchor="middle" x="38.18" y="-18.78" font-family="Times,serif" font-size="14.00">True</text>
</g>
<!-- 3&#45;&gt;4 -->
<g id="edge7" class="edge">
<title>3&#45;&gt;4</title>
<path fill="none" stroke="black" d="M27.09,-127.55C25.47,-121.1 24.05,-114.37 23.18,-107.95 22.08,-99.78 22.57,-91.14 23.91,-82.83"/>
<polygon fill="black" stroke="black" points="27.36,-83.41 25.9,-72.92 20.5,-82.04 27.36,-83.41"/>
<text text-anchor="middle" x="28.18" y="-96.75" font-family="Times,serif" font-size="14.00">b</text>
</g>
<!-- 4&#45;&gt;3 -->
<g id="edge9" class="edge">
<title>4&#45;&gt;3</title>
<path fill="none" stroke="black" d="M38.18,-75.16C38.18,-87.93 38.18,-102.42 38.18,-115.87"/>
<polygon fill="black" stroke="black" points="34.68,-115.91 38.18,-125.91 41.68,-115.91 34.68,-115.91"/>
<text text-anchor="middle" x="43.18" y="-96.75" font-family="Times,serif" font-size="14.00">b</text>
</g>
<!-- 4&#45;&gt;4 -->
<g id="edge8" class="edge">
<title>4&#45;&gt;4</title>
<path fill="none" stroke="black" d="M72.05,-49.1C82.92,-48.98 91.54,-45.11 91.54,-37.48 91.54,-32.47 87.83,-29.08 82.2,-27.31"/>
<polygon fill="black" stroke="black" points="82.45,-23.81 72.05,-25.85 81.45,-30.74 82.45,-23.81"/>
<text text-anchor="middle" x="96.04" y="-33.78" font-family="Times,serif" font-size="14.00">a</text>
</g>
</g>
</svg>
