<?xml version="1.0" encoding="UTF-8" standalone="no"?>
<!DOCTYPE svg PUBLIC "-//W3C//DTD SVG 1.1//EN"
 "http://www.w3.org/Graphics/SVG/1.1/DTD/svg11.dtd">
<!-- Generated by graphviz version 2.43.0 (0)
 -->
<!-- Title: G Pages: 1 -->
<svg width="112pt" height="250pt"
 viewBox="0.00 0.00 112.37 249.51" xmlns="http://www.w3.org/2000/svg" xmlns:xlink="http://www.w3.org/1999/xlink">
<g id="graph0" class="graph" transform="scale(1 1) rotate(0) translate(4 245.51)">
<title>G</title>
<polygon fill="white" stroke="transparent" points="-4,4 -4,-245.51 108.37,-245.51 108.37,4 -4,4"/>
<!-- 0 -->
<g id="node1" class="node">
<title>0</title>
<ellipse fill="black" stroke="black" cx="38.18" cy="-239.71" rx="1.8" ry="1.8"/>
</g>
<!-- 2 -->
<g id="node2" class="node">
<title>2</title>
<ellipse fill="none" stroke="black" cx="38.18" cy="-163.43" rx="35.21" ry="37.45"/>
<text text-anchor="middle" x="38.18" y="-174.73" font-family="Times,serif" font-size="14.00">2</text>
<text text-anchor="middle" x="38.18" y="-159.73" font-family="Times,serif" font-size="14.00">&#45;&#45;&#45;</text>
<text text-anchor="middle" x="38.18" y="-144.73" font-family="Times,serif" font-size="14.00">True</text>
</g>
<!-- 0&#45;&gt;2 -->
<g id="edge1" class="edge">
<title>0&#45;&gt;2</title>
<path fill="none" stroke="black" d="M38.18,-237.87C38.18,-234.83 38.18,-223.84 38.18,-211.26"/>
<polygon fill="black" stroke="black" points="41.68,-210.94 38.18,-200.94 34.68,-210.94 41.68,-210.94"/>
</g>
<!-- 2&#45;&gt;2 -->
<g id="edge5" class="edge">
<title>2&#45;&gt;2</title>
<path fill="none" stroke="black" d="M72.31,-173.55C83.06,-173.39 91.54,-170.02 91.54,-163.43 91.54,-159.1 87.89,-156.16 82.34,-154.61"/>
<polygon fill="black" stroke="black" points="82.68,-151.13 72.31,-153.31 81.78,-158.07 82.68,-151.13"/>
<text text-anchor="middle" x="96.54" y="-159.73" font-family="Times,serif" font-size="14.00">b</text>
</g>
<!-- 1 -->
<g id="node3" class="node">
<title>1</title>
<ellipse fill="none" stroke="black" cx="38.18" cy="-37.48" rx="38.37" ry="37.45"/>
<text text-anchor="middle" x="38.18" y="-48.78" font-family="Times,serif" font-size="14.00">0</text>
<text text-anchor="middle" x="38.18" y="-33.78" font-family="Times,serif" font-size="14.00">&#45;&#45;&#45;</text>
<text text-anchor="middle" x="38.18" y="-18.78" font-family="Times,serif" font-size="14.00">False</text>
</g>
<!-- 2&#45;&gt;1 -->
<g id="edge4" class="edge">
<title>2&#45;&gt;1</title>
<path fill="none" stroke="black" d="M28.51,-127.19C27.12,-120.83 25.92,-114.23 25.18,-107.95 24.26,-100.07 24.63,-91.73 25.7,-83.68"/>
<polygon fill="black" stroke="black" points="29.17,-84.12 27.39,-73.68 22.27,-82.96 29.17,-84.12"/>
<text text-anchor="middle" x="29.68" y="-96.75" font-family="Times,serif" font-size="14.00">a</text>
</g>
<!-- 1&#45;&gt;2 -->
<g id="edge2" class="edge">
<title>1&#45;&gt;2</title>
<path fill="none" stroke="black" d="M38.18,-75.16C38.18,-87.93 38.18,-102.42 38.18,-115.87"/>
<polygon fill="black" stroke="black" points="34.68,-115.91 38.18,-125.91 41.68,-115.91 34.68,-115.91"/>
<text text-anchor="middle" x="42.68" y="-96.75" font-family="Times,serif" font-size="14.00">a</text>
</g>
<!-- 1&#45;&gt;1 -->
<g id="edge3" class="edge">
<title>1&#45;&gt;1</title>
<path fill="none" stroke="black" d="M74.66,-49.08C85.72,-48.79 94.37,-44.92 94.37,-37.48 94.37,-32.59 90.64,-29.24 84.96,-27.44"/>
<polygon fill="black" stroke="black" points="85.07,-23.92 74.66,-25.87 84.02,-30.84 85.07,-23.92"/>
<text text-anchor="middle" x="99.37" y="-33.78" font-family="Times,serif" font-size="14.00">b</text>
</g>
</g>
</svg>
