<?xml version="1.0" encoding="UTF-8" standalone="no"?>
<!DOCTYPE svg PUBLIC "-//W3C//DTD SVG 1.1//EN"
 "http://www.w3.org/Graphics/SVG/1.1/DTD/svg11.dtd">
<!-- Generated by graphviz version 2.43.0 (0)
 -->
<!-- Title: G Pages: 1 -->
<svg width="111pt" height="250pt"
 viewBox="0.00 0.00 111.37 249.51" xmlns="http://www.w3.org/2000/svg" xmlns:xlink="http://www.w3.org/1999/xlink">
<g id="graph0" class="graph" transform="scale(1 1) rotate(0) translate(4 245.51)">
<title>G</title>
<polygon fill="white" stroke="transparent" points="-4,4 -4,-245.51 107.37,-245.51 107.37,4 -4,4"/>
<!-- 0 -->
<g id="node1" class="node">
<title>0</title>
<ellipse fill="black" stroke="black" cx="38.18" cy="-239.71" rx="1.8" ry="1.8"/>
</g>
<!-- 1 -->
<g id="node2" class="node">
<title>1</title>
<ellipse fill="none" stroke="black" cx="38.18" cy="-163.43" rx="38.37" ry="37.45"/>
<text text-anchor="middle" x="38.18" y="-174.73" font-family="Times,serif" font-size="14.00">0</text>
<text text-anchor="middle" x="38.18" y="-159.73" font-family="Times,serif" font-size="14.00">&#45;&#45;&#45;</text>
<text text-anchor="middle" x="38.18" y="-144.73" font-family="Times,serif" font-size="14.00">False</text>
</g>
<!-- 0&#45;&gt;1 -->
<g id="edge1" class="edge">
<title>0&#45;&gt;1</title>
<path fill="none" stroke="black" d="M38.18,-237.87C38.18,-234.83 38.18,-223.84 38.18,-211.26"/>
<polygon fill="black" stroke="black" points="41.68,-210.94 38.18,-200.94 34.68,-210.94 41.68,-210.94"/>
</g>
<!-- 1&#45;&gt;1 -->
<g id="edge2" class="edge">
<title>1&#45;&gt;1</title>
<path fill="none" stroke="black" d="M75.2,-173.52C86,-173.18 94.37,-169.81 94.37,-163.43 94.37,-159.24 90.76,-156.35 85.23,-154.76"/>
<polygon fill="black" stroke="black" points="85.59,-151.28 75.2,-153.34 84.6,-158.21 85.59,-151.28"/>
<text text-anchor="middle" x="98.87" y="-159.73" font-family="Times,serif" font-size="14.00">a</text>
</g>
<!-- 2 -->
<g id="node3" class="node">
<title>2</title>
<ellipse fill="none" stroke="black" cx="38.18" cy="-37.48" rx="35.21" ry="37.45"/>
<text text-anchor="middle" x="38.18" y="-48.78" font-family="Times,serif" font-size="14.00">1</text>
<text text-anchor="middle" x="38.18" y="-33.78" font-family="Times,serif" font-size="14.00">&#45;&#45;&#45;</text>
<text text-anchor="middle" x="38.18" y="-18.78" font-family="Times,serif" font-size="14.00">True</text>
</g>
<!-- 1&#45;&gt;2 -->
<g id="edge3" class="edge">
<title>1&#45;&gt;2</title>
<path fill="none" stroke="black" d="M27.09,-127.55C25.47,-121.1 24.05,-114.37 23.18,-107.95 22.08,-99.78 22.57,-91.14 23.91,-82.83"/>
<polygon fill="black" stroke="black" points="27.36,-83.41 25.9,-72.92 20.5,-82.04 27.36,-83.41"/>
<text text-anchor="middle" x="28.18" y="-96.75" font-family="Times,serif" font-size="14.00">b</text>
</g>
<!-- 2&#45;&gt;1 -->
<g id="edge5" class="edge">
<title>2&#45;&gt;1</title>
<path fill="none" stroke="black" d="M38.18,-75.16C38.18,-87.93 38.18,-102.42 38.18,-115.87"/>
<polygon fill="black" stroke="black" points="34.68,-115.91 38.18,-125.91 41.68,-115.91 34.68,-115.91"/>
<text text-anchor="middle" x="43.18" y="-96.75" font-family="Times,serif" font-size="14.00">b</text>
</g>
<!-- 2&#45;&gt;2 -->
<g id="edge4" class="edge">
<title>2&#45;&gt;2</title>
<path fill="none" stroke="black" d="M72.05,-49.1C82.92,-48.98 91.54,-45.11 91.54,-37.48 91.54,-32.47 87.83,-29.08 82.2,-27.31"/>
<polygon fill="black" stroke="black" points="82.45,-23.81 72.05,-25.85 81.45,-30.74 82.45,-23.81"/>
<text text-anchor="middle" x="96.04" y="-33.78" font-family="Times,serif" font-size="14.00">a</text>
</g>
</g>
</svg>
