<?xml version="1.0" encoding="UTF-8" standalone="no"?>
<!DOCTYPE svg PUBLIC "-//W3C//DTD SVG 1.1//EN"
 "http://www.w3.org/Graphics/SVG/1.1/DTD/svg11.dtd">
<!-- Generated by graphviz version 2.43.0 (0)
 -->
<!-- Title: G Pages: 1 -->
<svg width="196pt" height="375pt"
 viewBox="0.00 0.00 196.37 375.46" xmlns="http://www.w3.org/2000/svg" xmlns:xlink="http://www.w3.org/1999/xlink">
<g id="graph0" class="graph" transform="scale(1 1) rotate(0) translate(4 371.46)">
<title>G</title>
<polygon fill="white" stroke="transparent" points="-4,4 -4,-371.46 192.37,-371.46 192.37,4 -4,4"/>
<!-- 0 -->
<g id="node1" class="node">
<title>0</title>
<ellipse fill="black" stroke="black" cx="38.18" cy="-365.66" rx="1.8" ry="1.8"/>
</g>
<!-- 1 -->
<g id="node2" class="node">
<title>1</title>
<ellipse fill="none" stroke="black" cx="38.18" cy="-289.38" rx="38.37" ry="37.45"/>
<text text-anchor="middle" x="38.18" y="-300.68" font-family="Times,serif" font-size="14.00">0</text>
<text text-anchor="middle" x="38.18" y="-285.68" font-family="Times,serif" font-size="14.00">&#45;&#45;&#45;</text>
<text text-anchor="middle" x="38.18" y="-270.68" font-family="Times,serif" font-size="14.00">False</text>
</g>
<!-- 0&#45;&gt;1 -->
<g id="edge1" class="edge">
<title>0&#45;&gt;1</title>
<path fill="none" stroke="black" d="M38.18,-363.83C38.18,-360.78 38.18,-349.79 38.18,-337.21"/>
<polygon fill="black" stroke="black" points="41.68,-336.9 38.18,-326.9 34.68,-336.9 41.68,-336.9"/>
</g>
<!-- 1&#45;&gt;1 -->
<g id="edge3" class="edge">
<title>1&#45;&gt;1</title>
<path fill="none" stroke="black" d="M76.26,-292.73C86.54,-292.56 94.37,-291.44 94.37,-289.38 94.37,-288.1 91.31,-287.18 86.51,-286.63"/>
<polygon fill="black" stroke="black" points="86.45,-283.12 76.26,-286.03 86.04,-290.11 86.45,-283.12"/>
<text text-anchor="middle" x="99.37" y="-285.68" font-family="Times,serif" font-size="14.00">0</text>
</g>
<!-- 1&#45;&gt;1 -->
<g id="edge4" class="edge">
<title>1&#45;&gt;1</title>
<path fill="none" stroke="black" d="M75.97,-295.92C95.16,-296.87 112.37,-294.69 112.37,-289.38 112.37,-285.03 100.79,-282.78 86.04,-282.64"/>
<polygon fill="black" stroke="black" points="85.9,-279.14 75.97,-282.85 86.04,-286.14 85.9,-279.14"/>
<text text-anchor="middle" x="117.37" y="-285.68" font-family="Times,serif" font-size="14.00">3</text>
</g>
<!-- 1&#45;&gt;1 -->
<g id="edge5" class="edge">
<title>1&#45;&gt;1</title>
<path fill="none" stroke="black" d="M75.58,-298.37C102.95,-301.39 130.37,-298.4 130.37,-289.38 130.37,-281.49 109.37,-278.21 85.79,-279.55"/>
<polygon fill="black" stroke="black" points="85.25,-276.08 75.58,-280.4 85.84,-283.06 85.25,-276.08"/>
<text text-anchor="middle" x="135.37" y="-285.68" font-family="Times,serif" font-size="14.00">1</text>
</g>
<!-- 3 -->
<g id="node3" class="node">
<title>3</title>
<ellipse fill="none" stroke="black" cx="38.18" cy="-163.43" rx="35.21" ry="37.45"/>
<text text-anchor="middle" x="38.18" y="-174.73" font-family="Times,serif" font-size="14.00">2</text>
<text text-anchor="middle" x="38.18" y="-159.73" font-family="Times,serif" font-size="14.00">&#45;&#45;&#45;</text>
<text text-anchor="middle" x="38.18" y="-144.73" font-family="Times,serif" font-size="14.00">True</text>
</g>
<!-- 1&#45;&gt;3 -->
<g id="edge2" class="edge">
<title>1&#45;&gt;3</title>
<path fill="none" stroke="black" d="M38.18,-251.86C38.18,-239.12 38.18,-224.63 38.18,-211.17"/>
<polygon fill="black" stroke="black" points="41.68,-211.12 38.18,-201.12 34.68,-211.12 41.68,-211.12"/>
<text text-anchor="middle" x="43.18" y="-222.71" font-family="Times,serif" font-size="14.00">2</text>
</g>
<!-- 3&#45;&gt;3 -->
<g id="edge11" class="edge">
<title>3&#45;&gt;3</title>
<path fill="none" stroke="black" d="M73.59,-167.29C83.72,-167.14 91.54,-165.85 91.54,-163.43 91.54,-161.92 88.49,-160.85 83.72,-160.22"/>
<polygon fill="black" stroke="black" points="83.79,-156.72 73.59,-159.57 83.34,-163.7 83.79,-156.72"/>
<text text-anchor="middle" x="96.54" y="-159.73" font-family="Times,serif" font-size="14.00">0</text>
</g>
<!-- 3&#45;&gt;3 -->
<g id="edge12" class="edge">
<title>3&#45;&gt;3</title>
<path fill="none" stroke="black" d="M73.06,-170.84C92.1,-172.15 109.54,-169.69 109.54,-163.43 109.54,-158.3 97.8,-155.71 83.08,-155.68"/>
<polygon fill="black" stroke="black" points="82.93,-152.18 73.06,-156.02 83.17,-159.18 82.93,-152.18"/>
<text text-anchor="middle" x="114.54" y="-159.73" font-family="Times,serif" font-size="14.00">3</text>
</g>
<!-- 3&#45;&gt;3 -->
<g id="edge13" class="edge">
<title>3&#45;&gt;3</title>
<path fill="none" stroke="black" d="M72.57,-173.49C99.7,-177.38 127.54,-174.03 127.54,-163.43 127.54,-154.16 106.23,-150.43 82.72,-152.25"/>
<polygon fill="black" stroke="black" points="82.13,-148.8 72.57,-153.37 82.89,-155.76 82.13,-148.8"/>
<text text-anchor="middle" x="132.54" y="-159.73" font-family="Times,serif" font-size="14.00">1</text>
</g>
<!-- 2 -->
<g id="node4" class="node">
<title>2</title>
<ellipse fill="none" stroke="black" cx="38.18" cy="-37.48" rx="38.37" ry="37.45"/>
<text text-anchor="middle" x="38.18" y="-48.78" font-family="Times,serif" font-size="14.00">1</text>
<text text-anchor="middle" x="38.18" y="-33.78" font-family="Times,serif" font-size="14.00">&#45;&#45;&#45;</text>
<text text-anchor="middle" x="38.18" y="-18.78" font-family="Times,serif" font-size="14.00">False</text>
</g>
<!-- 3&#45;&gt;2 -->
<g id="edge10" class="edge">
<title>3&#45;&gt;2</title>
<path fill="none" stroke="black" d="M38.18,-125.91C38.18,-113.16 38.18,-98.68 38.18,-85.21"/>
<polygon fill="black" stroke="black" points="41.68,-85.16 38.18,-75.16 34.68,-85.16 41.68,-85.16"/>
<text text-anchor="middle" x="43.18" y="-96.75" font-family="Times,serif" font-size="14.00">2</text>
</g>
<!-- 2&#45;&gt;2 -->
<g id="edge6" class="edge">
<title>2&#45;&gt;2</title>
<path fill="none" stroke="black" d="M76.26,-40.36C86.54,-40.21 94.37,-39.25 94.37,-37.48 94.37,-36.37 91.31,-35.58 86.51,-35.1"/>
<polygon fill="black" stroke="black" points="86.42,-31.6 76.26,-34.59 86.07,-38.59 86.42,-31.6"/>
<text text-anchor="middle" x="99.37" y="-33.78" font-family="Times,serif" font-size="14.00">2</text>
</g>
<!-- 2&#45;&gt;2 -->
<g id="edge7" class="edge">
<title>2&#45;&gt;2</title>
<path fill="none" stroke="black" d="M75.97,-43.1C95.16,-43.92 112.37,-42.05 112.37,-37.48 112.37,-33.73 100.79,-31.79 86.04,-31.67"/>
<polygon fill="black" stroke="black" points="85.91,-28.17 75.97,-31.85 86.03,-35.17 85.91,-28.17"/>
<text text-anchor="middle" x="117.37" y="-33.78" font-family="Times,serif" font-size="14.00">0</text>
</g>
<!-- 2&#45;&gt;2 -->
<g id="edge8" class="edge">
<title>2&#45;&gt;2</title>
<path fill="none" stroke="black" d="M75.58,-45.21C102.95,-47.82 130.37,-45.24 130.37,-37.48 130.37,-30.68 109.37,-27.86 85.79,-29.01"/>
<polygon fill="black" stroke="black" points="85.3,-25.53 75.58,-29.74 85.81,-32.51 85.3,-25.53"/>
<text text-anchor="middle" x="135.37" y="-33.78" font-family="Times,serif" font-size="14.00">3</text>
</g>
<!-- 2&#45;&gt;2 -->
<g id="edge9" class="edge">
<title>2&#45;&gt;2</title>
<path fill="none" stroke="black" d="M75.44,-46.88C110.42,-51.75 148.37,-48.62 148.37,-37.48 148.37,-27.42 117.47,-23.89 85.73,-26.88"/>
<polygon fill="black" stroke="black" points="84.97,-23.44 75.44,-28.08 85.78,-30.4 84.97,-23.44"/>
<text text-anchor="middle" x="153.37" y="-33.78" font-family="Times,serif" font-size="14.00">1</text>
</g>
</g>
</svg>
