<?xml version="1.0" encoding="UTF-8" standalone="no"?>
<!DOCTYPE svg PUBLIC "-//W3C//DTD SVG 1.1//EN"
 "http://www.w3.org/Graphics/SVG/1.1/DTD/svg11.dtd">
<!-- Generated by graphviz version 2.43.0 (0)
 -->
<!-- Title: G Pages: 1 -->
<svg width="286pt" height="375pt"
 viewBox="0.00 0.00 286.37 375.46" xmlns="http://www.w3.org/2000/svg" xmlns:xlink="http://www.w3.org/1999/xlink">
<g id="graph0" class="graph" transform="scale(1 1) rotate(0) translate(4 371.46)">
<title>G</title>
<polygon fill="white" stroke="transparent" points="-4,4 -4,-371.46 282.37,-371.46 282.37,4 -4,4"/>
<!-- 0 -->
<g id="node1" class="node">
<title>0</title>
<ellipse fill="black" stroke="black" cx="156.18" cy="-365.66" rx="1.8" ry="1.8"/>
</g>
<!-- 2 -->
<g id="node2" class="node">
<title>2</title>
<ellipse fill="none" stroke="black" cx="156.18" cy="-289.38" rx="38.37" ry="37.45"/>
<text text-anchor="middle" x="156.18" y="-300.68" font-family="Times,serif" font-size="14.00">1</text>
<text text-anchor="middle" x="156.18" y="-285.68" font-family="Times,serif" font-size="14.00">&#45;&#45;&#45;</text>
<text text-anchor="middle" x="156.18" y="-270.68" font-family="Times,serif" font-size="14.00">False</text>
</g>
<!-- 0&#45;&gt;2 -->
<g id="edge1" class="edge">
<title>0&#45;&gt;2</title>
<path fill="none" stroke="black" d="M156.18,-363.83C156.18,-360.78 156.18,-349.79 156.18,-337.21"/>
<polygon fill="black" stroke="black" points="159.68,-336.9 156.18,-326.9 152.68,-336.9 159.68,-336.9"/>
</g>
<!-- 2&#45;&gt;2 -->
<g id="edge7" class="edge">
<title>2&#45;&gt;2</title>
<path fill="none" stroke="black" d="M194.26,-292.73C204.54,-292.56 212.37,-291.44 212.37,-289.38 212.37,-288.1 209.31,-287.18 204.51,-286.63"/>
<polygon fill="black" stroke="black" points="204.45,-283.12 194.26,-286.03 204.04,-290.11 204.45,-283.12"/>
<text text-anchor="middle" x="217.37" y="-285.68" font-family="Times,serif" font-size="14.00">0</text>
</g>
<!-- 2&#45;&gt;2 -->
<g id="edge8" class="edge">
<title>2&#45;&gt;2</title>
<path fill="none" stroke="black" d="M193.97,-295.92C213.16,-296.87 230.37,-294.69 230.37,-289.38 230.37,-285.03 218.79,-282.78 204.04,-282.64"/>
<polygon fill="black" stroke="black" points="203.9,-279.14 193.97,-282.85 204.04,-286.14 203.9,-279.14"/>
<text text-anchor="middle" x="235.37" y="-285.68" font-family="Times,serif" font-size="14.00">3</text>
</g>
<!-- 2&#45;&gt;2 -->
<g id="edge9" class="edge">
<title>2&#45;&gt;2</title>
<path fill="none" stroke="black" d="M193.58,-298.37C220.95,-301.39 248.37,-298.4 248.37,-289.38 248.37,-281.49 227.37,-278.21 203.79,-279.55"/>
<polygon fill="black" stroke="black" points="203.25,-276.08 193.58,-280.4 203.84,-283.06 203.25,-276.08"/>
<text text-anchor="middle" x="253.37" y="-285.68" font-family="Times,serif" font-size="14.00">1</text>
</g>
<!-- 3 -->
<g id="node4" class="node">
<title>3</title>
<ellipse fill="none" stroke="black" cx="38.18" cy="-163.43" rx="38.37" ry="37.45"/>
<text text-anchor="middle" x="38.18" y="-174.73" font-family="Times,serif" font-size="14.00">2</text>
<text text-anchor="middle" x="38.18" y="-159.73" font-family="Times,serif" font-size="14.00">&#45;&#45;&#45;</text>
<text text-anchor="middle" x="38.18" y="-144.73" font-family="Times,serif" font-size="14.00">False</text>
</g>
<!-- 2&#45;&gt;3 -->
<g id="edge6" class="edge">
<title>2&#45;&gt;3</title>
<path fill="none" stroke="black" d="M130.58,-261.49C113.15,-243.18 89.92,-218.78 71.12,-199.02"/>
<polygon fill="black" stroke="black" points="73.58,-196.53 64.15,-191.7 68.51,-201.36 73.58,-196.53"/>
<text text-anchor="middle" x="110.18" y="-222.71" font-family="Times,serif" font-size="14.00">2</text>
</g>
<!-- 1 -->
<g id="node3" class="node">
<title>1</title>
<ellipse fill="none" stroke="black" cx="117.18" cy="-37.48" rx="35.21" ry="37.45"/>
<text text-anchor="middle" x="117.18" y="-48.78" font-family="Times,serif" font-size="14.00">0</text>
<text text-anchor="middle" x="117.18" y="-33.78" font-family="Times,serif" font-size="14.00">&#45;&#45;&#45;</text>
<text text-anchor="middle" x="117.18" y="-18.78" font-family="Times,serif" font-size="14.00">True</text>
</g>
<!-- 1&#45;&gt;2 -->
<g id="edge2" class="edge">
<title>1&#45;&gt;2</title>
<path fill="none" stroke="black" d="M139.5,-67.02C150.8,-83.3 163.33,-104.66 169.18,-125.95 179.78,-164.52 174.71,-210.03 168.04,-243.05"/>
<polygon fill="black" stroke="black" points="164.61,-242.36 165.94,-252.87 171.45,-243.83 164.61,-242.36"/>
<text text-anchor="middle" x="180.18" y="-159.73" font-family="Times,serif" font-size="14.00">2</text>
</g>
<!-- 1&#45;&gt;1 -->
<g id="edge3" class="edge">
<title>1&#45;&gt;1</title>
<path fill="none" stroke="black" d="M152.59,-41.34C162.72,-41.19 170.54,-39.9 170.54,-37.48 170.54,-35.96 167.49,-34.89 162.72,-34.27"/>
<polygon fill="black" stroke="black" points="162.79,-30.76 152.59,-33.62 162.34,-37.75 162.79,-30.76"/>
<text text-anchor="middle" x="175.54" y="-33.78" font-family="Times,serif" font-size="14.00">0</text>
</g>
<!-- 1&#45;&gt;1 -->
<g id="edge4" class="edge">
<title>1&#45;&gt;1</title>
<path fill="none" stroke="black" d="M152.06,-44.88C171.1,-46.2 188.54,-43.73 188.54,-37.48 188.54,-32.34 176.8,-29.76 162.08,-29.73"/>
<polygon fill="black" stroke="black" points="161.93,-26.23 152.06,-30.07 162.17,-33.23 161.93,-26.23"/>
<text text-anchor="middle" x="193.54" y="-33.78" font-family="Times,serif" font-size="14.00">3</text>
</g>
<!-- 1&#45;&gt;1 -->
<g id="edge5" class="edge">
<title>1&#45;&gt;1</title>
<path fill="none" stroke="black" d="M151.57,-47.53C178.7,-51.42 206.54,-48.07 206.54,-37.48 206.54,-28.21 185.23,-24.48 161.72,-26.3"/>
<polygon fill="black" stroke="black" points="161.13,-22.84 151.57,-27.42 161.89,-29.8 161.13,-22.84"/>
<text text-anchor="middle" x="211.54" y="-33.78" font-family="Times,serif" font-size="14.00">1</text>
</g>
<!-- 3&#45;&gt;1 -->
<g id="edge10" class="edge">
<title>3&#45;&gt;1</title>
<path fill="none" stroke="black" d="M58.12,-131.15C68.47,-114.91 81.23,-94.9 92.23,-77.63"/>
<polygon fill="black" stroke="black" points="95.38,-79.2 97.8,-68.89 89.48,-75.44 95.38,-79.2"/>
<text text-anchor="middle" x="88.18" y="-96.75" font-family="Times,serif" font-size="14.00">2</text>
</g>
<!-- 3&#45;&gt;3 -->
<g id="edge11" class="edge">
<title>3&#45;&gt;3</title>
<path fill="none" stroke="black" d="M76.26,-167.28C86.54,-167.07 94.37,-165.79 94.37,-163.43 94.37,-161.95 91.31,-160.9 86.51,-160.27"/>
<polygon fill="black" stroke="black" points="86.47,-156.76 76.26,-159.58 86,-163.74 86.47,-156.76"/>
<text text-anchor="middle" x="99.37" y="-159.73" font-family="Times,serif" font-size="14.00">0</text>
</g>
<!-- 3&#45;&gt;3 -->
<g id="edge12" class="edge">
<title>3&#45;&gt;3</title>
<path fill="none" stroke="black" d="M75.97,-170.93C95.16,-172.02 112.37,-169.53 112.37,-163.43 112.37,-158.43 100.79,-155.85 86.04,-155.69"/>
<polygon fill="black" stroke="black" points="85.88,-152.19 75.97,-155.93 86.05,-159.19 85.88,-152.19"/>
<text text-anchor="middle" x="117.37" y="-159.73" font-family="Times,serif" font-size="14.00">3</text>
</g>
<!-- 3&#45;&gt;3 -->
<g id="edge13" class="edge">
<title>3&#45;&gt;3</title>
<path fill="none" stroke="black" d="M75.1,-173.68C102.63,-177.26 130.37,-173.84 130.37,-163.43 130.37,-154.28 108.94,-150.53 85.06,-152.19"/>
<polygon fill="black" stroke="black" points="84.7,-148.7 75.1,-153.18 85.4,-155.67 84.7,-148.7"/>
<text text-anchor="middle" x="135.37" y="-159.73" font-family="Times,serif" font-size="14.00">1</text>
</g>
</g>
</svg>
