<?xml version="1.0" encoding="UTF-8" standalone="no"?>
<!DOCTYPE svg PUBLIC "-//W3C//DTD SVG 1.1//EN"
 "http://www.w3.org/Graphics/SVG/1.1/DTD/svg11.dtd">
<!-- Generated by graphviz version 2.43.0 (0)
 -->
<!-- Title: model Pages: 1 -->
<svg width="249pt" height="382pt"
 viewBox="0.00 0.00 248.90 381.80" xmlns="http://www.w3.org/2000/svg" xmlns:xlink="http://www.w3.org/1999/xlink">
<g id="graph0" class="graph" transform="scale(1 1) rotate(0) translate(4 377.8)">
<title>model</title>
<polygon fill="white" stroke="transparent" points="-4,4 -4,-377.8 244.9,-377.8 244.9,4 -4,4"/>
<!-- 0 -->
<g id="node1" class="node">
<title>0</title>
<ellipse fill="none" stroke="black" cx="113.9" cy="-355.8" rx="71.49" ry="18"/>
<text text-anchor="middle" x="113.9" y="-352.1" font-family="Times,serif" font-size="14.00">0: {init}&lt;0&gt;</text>
</g>
<!-- 0c0 -->
<g id="node4" class="node">
<title>0c0</title>
<ellipse fill="black" stroke="black" cx="61.9" cy="-285" rx="1.8" ry="1.8"/>
</g>
<!-- 0&#45;&gt;0c0 -->
<g id="edge1" class="edge">
<title>0&#45;&gt;0c0</title>
<path fill="none" stroke="black" d="M92.91,-338.44C86.86,-332.99 80.62,-326.57 75.9,-319.8 70.93,-312.69 67.28,-303.55 64.95,-296.57"/>
<polygon fill="black" stroke="black" points="68.29,-295.51 62.11,-286.91 61.57,-297.49 68.29,-295.51"/>
</g>
<!-- 0c1 -->
<g id="node5" class="node">
<title>0c1</title>
<ellipse fill="black" stroke="black" cx="132.9" cy="-285" rx="1.8" ry="1.8"/>
</g>
<!-- 0&#45;&gt;0c1 -->
<g id="edge4" class="edge">
<title>0&#45;&gt;0c1</title>
<path fill="none" stroke="black" d="M118.59,-337.79C122.14,-324.96 126.89,-307.73 129.93,-296.75"/>
<polygon fill="black" stroke="black" points="133.39,-297.36 132.68,-286.79 126.64,-295.5 133.39,-297.36"/>
</g>
<!-- 1 -->
<g id="node2" class="node">
<title>1</title>
<ellipse fill="none" stroke="black" cx="55.9" cy="-214.2" rx="55.79" ry="18"/>
<text text-anchor="middle" x="55.9" y="-210.5" font-family="Times,serif" font-size="14.00">1: {}&lt;1&gt;</text>
</g>
<!-- 1c0 -->
<g id="node6" class="node">
<title>1c0</title>
<ellipse fill="black" stroke="black" cx="88.9" cy="-143.4" rx="1.8" ry="1.8"/>
</g>
<!-- 1&#45;&gt;1c0 -->
<g id="edge7" class="edge">
<title>1&#45;&gt;1c0</title>
<path fill="none" stroke="black" d="M58.41,-196.13C60.43,-186.04 63.95,-173.3 69.9,-163.2 72.52,-158.75 76.45,-154.61 80.06,-151.36"/>
<polygon fill="black" stroke="black" points="82.39,-153.98 88.02,-145 78.02,-148.51 82.39,-153.98"/>
</g>
<!-- 2 -->
<g id="node3" class="node">
<title>2</title>
<ellipse fill="none" stroke="black" cx="116.9" cy="-72.6" rx="55.79" ry="18"/>
<text text-anchor="middle" x="116.9" y="-68.9" font-family="Times,serif" font-size="14.00">2: {}&lt;0&gt;</text>
</g>
<!-- 2c0 -->
<g id="node7" class="node">
<title>2c0</title>
<ellipse fill="black" stroke="black" cx="48.9" cy="-1.8" rx="1.8" ry="1.8"/>
</g>
<!-- 2&#45;&gt;2c0 -->
<g id="edge10" class="edge">
<title>2&#45;&gt;2c0</title>
<path fill="none" stroke="black" d="M87.74,-57.16C78.87,-51.68 69.69,-44.76 62.9,-36.6 57.35,-29.94 53.74,-20.77 51.57,-13.66"/>
<polygon fill="black" stroke="black" points="54.91,-12.58 49.07,-3.74 48.12,-14.29 54.91,-12.58"/>
</g>
<!-- 2c1 -->
<g id="node8" class="node">
<title>2c1</title>
<ellipse fill="black" stroke="black" cx="161.9" cy="-1.8" rx="1.8" ry="1.8"/>
</g>
<!-- 2&#45;&gt;2c1 -->
<g id="edge13" class="edge">
<title>2&#45;&gt;2c1</title>
<path fill="none" stroke="black" d="M124.11,-54.63C128.76,-44.57 135.35,-31.84 142.9,-21.6 145.96,-17.44 149.96,-13.34 153.49,-10.04"/>
<polygon fill="black" stroke="black" points="155.83,-12.64 161.08,-3.44 151.24,-7.36 155.83,-12.64"/>
</g>
<!-- 0c0&#45;&gt;0 -->
<g id="edge2" class="edge">
<title>0c0&#45;&gt;0</title>
<path fill="none" stroke="black" d="M62.49,-286.79C65.74,-291.09 81.57,-312.03 94.81,-329.55"/>
<polygon fill="black" stroke="black" points="92.22,-331.93 101.04,-337.79 97.8,-327.71 92.22,-331.93"/>
<text text-anchor="middle" x="98.4" y="-308.6" font-family="Times,serif" font-size="14.00">0.5</text>
</g>
<!-- 0c0&#45;&gt;1 -->
<g id="edge3" class="edge">
<title>0c0&#45;&gt;1</title>
<path fill="none" stroke="black" d="M61.17,-283.05C59.19,-280.41 53.76,-272.66 51.9,-265.2 50.09,-257.96 49.94,-249.97 50.54,-242.54"/>
<polygon fill="black" stroke="black" points="54.02,-242.91 51.79,-232.55 47.08,-242.04 54.02,-242.91"/>
<text text-anchor="middle" x="63.4" y="-254" font-family="Times,serif" font-size="14.00">0.5</text>
</g>
<!-- 0c1&#45;&gt;1 -->
<g id="edge5" class="edge">
<title>0c1&#45;&gt;1</title>
<path fill="none" stroke="black" d="M131.71,-283.56C127.06,-281.78 109.67,-274.77 97.9,-265.2 88.96,-257.94 80.51,-248.57 73.56,-239.91"/>
<polygon fill="black" stroke="black" points="76.27,-237.69 67.39,-231.91 70.73,-241.97 76.27,-237.69"/>
<text text-anchor="middle" x="113.9" y="-254" font-family="Times,serif" font-size="14.00">0.75</text>
</g>
<!-- 0c1&#45;&gt;2 -->
<g id="edge6" class="edge">
<title>0c1&#45;&gt;2</title>
<path fill="none" stroke="black" d="M133,-282.87C134.02,-271.76 141.73,-180.57 128.9,-108.6 128.41,-105.91 127.76,-103.14 127.01,-100.4"/>
<polygon fill="black" stroke="black" points="130.31,-99.24 123.96,-90.77 123.64,-101.36 130.31,-99.24"/>
<text text-anchor="middle" x="150.9" y="-167" font-family="Times,serif" font-size="14.00">0.25</text>
</g>
<!-- 1c0&#45;&gt;1 -->
<g id="edge8" class="edge">
<title>1c0&#45;&gt;1</title>
<path fill="none" stroke="black" d="M88.51,-145.19C86.49,-149.41 76.77,-169.67 68.46,-186.99"/>
<polygon fill="black" stroke="black" points="65.22,-185.66 64.05,-196.19 71.53,-188.69 65.22,-185.66"/>
<text text-anchor="middle" x="91.4" y="-167" font-family="Times,serif" font-size="14.00">0.9</text>
</g>
<!-- 1c0&#45;&gt;2 -->
<g id="edge9" class="edge">
<title>1c0&#45;&gt;2</title>
<path fill="none" stroke="black" d="M89.21,-141.63C90.89,-137.51 98.97,-117.65 105.97,-100.45"/>
<polygon fill="black" stroke="black" points="109.38,-101.34 109.91,-90.76 102.9,-98.7 109.38,-101.34"/>
<text text-anchor="middle" x="113.4" y="-112.4" font-family="Times,serif" font-size="14.00">0.1</text>
</g>
<!-- 2c0&#45;&gt;1 -->
<g id="edge11" class="edge">
<title>2c0&#45;&gt;1</title>
<path fill="none" stroke="black" d="M48.93,-3.72C49.31,-15.2 53.18,-131.56 54.98,-185.73"/>
<polygon fill="black" stroke="black" points="51.49,-186.1 55.32,-195.98 58.49,-185.87 51.49,-186.1"/>
<text text-anchor="middle" x="68.9" y="-112.4" font-family="Times,serif" font-size="14.00">0.75</text>
</g>
<!-- 2c0&#45;&gt;2 -->
<g id="edge12" class="edge">
<title>2c0&#45;&gt;2</title>
<path fill="none" stroke="black" d="M49.7,-3.61C54.12,-8.09 75.96,-30.18 93.56,-47.99"/>
<polygon fill="black" stroke="black" points="91.26,-50.64 100.78,-55.3 96.24,-45.72 91.26,-50.64"/>
<text text-anchor="middle" x="96.9" y="-25.4" font-family="Times,serif" font-size="14.00">0.25</text>
</g>
<!-- 2c1&#45;&gt;0 -->
<g id="edge14" class="edge">
<title>2c1&#45;&gt;0</title>
<path fill="none" stroke="black" d="M162.9,-3.39C166.37,-5.48 178.01,-12.84 184.9,-21.6 200.13,-40.97 208.9,-46.95 208.9,-71.6 208.9,-286 208.9,-286 208.9,-286 208.9,-309.97 188.82,-326.44 167.12,-337.24"/>
<polygon fill="black" stroke="black" points="165.41,-334.17 157.78,-341.53 168.33,-340.54 165.41,-334.17"/>
<text text-anchor="middle" x="224.9" y="-167" font-family="Times,serif" font-size="14.00">0.75</text>
</g>
<!-- 2c1&#45;&gt;2 -->
<g id="edge15" class="edge">
<title>2c1&#45;&gt;2</title>
<path fill="none" stroke="black" d="M161.35,-3.64C158.88,-7.44 148.48,-23.47 139.9,-36.6 137.82,-39.77 135.64,-43.1 133.48,-46.39"/>
<polygon fill="black" stroke="black" points="130.47,-44.6 127.91,-54.88 136.32,-48.44 130.47,-44.6"/>
<text text-anchor="middle" x="164.9" y="-25.4" font-family="Times,serif" font-size="14.00">0.25</text>
</g>
</g>
</svg>
