<?xml version="1.0" encoding="UTF-8" standalone="no"?>
<!DOCTYPE svg PUBLIC "-//W3C//DTD SVG 1.1//EN"
 "http://www.w3.org/Graphics/SVG/1.1/DTD/svg11.dtd">
<!-- Generated by graphviz version 2.43.0 (0)
 -->
<!-- Title: G Pages: 1 -->
<svg width="135pt" height="501pt"
 viewBox="0.00 0.00 135.37 501.41" xmlns="http://www.w3.org/2000/svg" xmlns:xlink="http://www.w3.org/1999/xlink">
<g id="graph0" class="graph" transform="scale(1 1) rotate(0) translate(4 497.41)">
<title>G</title>
<polygon fill="white" stroke="transparent" points="-4,4 -4,-497.41 131.37,-497.41 131.37,4 -4,4"/>
<!-- 0 -->
<g id="node1" class="node">
<title>0</title>
<ellipse fill="black" stroke="black" cx="89.18" cy="-491.61" rx="1.8" ry="1.8"/>
</g>
<!-- 2 -->
<g id="node2" class="node">
<title>2</title>
<ellipse fill="none" stroke="black" cx="89.18" cy="-415.34" rx="38.37" ry="37.45"/>
<text text-anchor="middle" x="89.18" y="-426.64" font-family="Times,serif" font-size="14.00">(2, 0)</text>
<text text-anchor="middle" x="89.18" y="-411.64" font-family="Times,serif" font-size="14.00">&#45;&#45;&#45;</text>
<text text-anchor="middle" x="89.18" y="-396.64" font-family="Times,serif" font-size="14.00">10</text>
</g>
<!-- 0&#45;&gt;2 -->
<g id="edge1" class="edge">
<title>0&#45;&gt;2</title>
<path fill="none" stroke="black" d="M89.18,-489.78C89.18,-486.74 89.18,-475.75 89.18,-463.16"/>
<polygon fill="black" stroke="black" points="92.68,-462.85 89.18,-452.85 85.68,-462.85 92.68,-462.85"/>
</g>
<!-- 3 -->
<g id="node4" class="node">
<title>3</title>
<ellipse fill="none" stroke="black" cx="38.18" cy="-289.38" rx="38.37" ry="37.45"/>
<text text-anchor="middle" x="38.18" y="-300.68" font-family="Times,serif" font-size="14.00">(2, 1)</text>
<text text-anchor="middle" x="38.18" y="-285.68" font-family="Times,serif" font-size="14.00">&#45;&#45;&#45;</text>
<text text-anchor="middle" x="38.18" y="-270.68" font-family="Times,serif" font-size="14.00">25</text>
</g>
<!-- 2&#45;&gt;3 -->
<g id="edge5" class="edge">
<title>2&#45;&gt;3</title>
<path fill="none" stroke="black" d="M62.92,-388.09C56.02,-379.72 49.34,-369.98 45.18,-359.86 42.27,-352.77 40.37,-344.93 39.15,-337.16"/>
<polygon fill="black" stroke="black" points="42.61,-336.56 37.93,-327.05 35.66,-337.4 42.61,-336.56"/>
<text text-anchor="middle" x="50.18" y="-348.66" font-family="Times,serif" font-size="14.00">b</text>
</g>
<!-- 4 -->
<g id="node5" class="node">
<title>4</title>
<ellipse fill="none" stroke="black" cx="89.18" cy="-37.48" rx="38.37" ry="37.45"/>
<text text-anchor="middle" x="89.18" y="-48.78" font-family="Times,serif" font-size="14.00">(0, 0)</text>
<text text-anchor="middle" x="89.18" y="-33.78" font-family="Times,serif" font-size="14.00">&#45;&#45;&#45;</text>
<text text-anchor="middle" x="89.18" y="-18.78" font-family="Times,serif" font-size="14.00">0</text>
</g>
<!-- 2&#45;&gt;4 -->
<g id="edge4" class="edge">
<title>2&#45;&gt;4</title>
<path fill="none" stroke="black" d="M89.18,-377.61C89.18,-308.9 89.18,-161 89.18,-85.26"/>
<polygon fill="black" stroke="black" points="92.68,-85.07 89.18,-75.07 85.68,-85.07 92.68,-85.07"/>
<text text-anchor="middle" x="93.68" y="-222.71" font-family="Times,serif" font-size="14.00">a</text>
</g>
<!-- 1 -->
<g id="node3" class="node">
<title>1</title>
<ellipse fill="none" stroke="black" cx="38.18" cy="-163.43" rx="38.37" ry="37.45"/>
<text text-anchor="middle" x="38.18" y="-174.73" font-family="Times,serif" font-size="14.00">(0, 1)</text>
<text text-anchor="middle" x="38.18" y="-159.73" font-family="Times,serif" font-size="14.00">&#45;&#45;&#45;</text>
<text text-anchor="middle" x="38.18" y="-144.73" font-family="Times,serif" font-size="14.00">15</text>
</g>
<!-- 1&#45;&gt;3 -->
<g id="edge2" class="edge">
<title>1&#45;&gt;3</title>
<path fill="none" stroke="black" d="M38.18,-201.12C38.18,-213.88 38.18,-228.37 38.18,-241.82"/>
<polygon fill="black" stroke="black" points="34.68,-241.86 38.18,-251.86 41.68,-241.86 34.68,-241.86"/>
<text text-anchor="middle" x="42.68" y="-222.71" font-family="Times,serif" font-size="14.00">a</text>
</g>
<!-- 1&#45;&gt;4 -->
<g id="edge3" class="edge">
<title>1&#45;&gt;4</title>
<path fill="none" stroke="black" d="M37.93,-125.77C38.89,-114.89 40.99,-103.16 45.18,-92.95 48.04,-86 52.09,-79.22 56.58,-72.94"/>
<polygon fill="black" stroke="black" points="59.59,-74.78 62.92,-64.72 54.04,-70.51 59.59,-74.78"/>
<text text-anchor="middle" x="50.18" y="-96.75" font-family="Times,serif" font-size="14.00">b</text>
</g>
<!-- 3&#45;&gt;2 -->
<g id="edge7" class="edge">
<title>3&#45;&gt;2</title>
<path fill="none" stroke="black" d="M52.21,-324.47C58.06,-338.68 64.92,-355.37 71.14,-370.48"/>
<polygon fill="black" stroke="black" points="68.07,-372.22 75.11,-380.14 74.54,-369.56 68.07,-372.22"/>
<text text-anchor="middle" x="71.18" y="-348.66" font-family="Times,serif" font-size="14.00">b</text>
</g>
<!-- 3&#45;&gt;1 -->
<g id="edge6" class="edge">
<title>3&#45;&gt;1</title>
<path fill="none" stroke="black" d="M28.44,-252.85C27.09,-246.58 25.91,-240.09 25.18,-233.91 24.26,-226.02 24.63,-217.69 25.7,-209.63"/>
<polygon fill="black" stroke="black" points="29.17,-210.08 27.39,-199.63 22.27,-208.91 29.17,-210.08"/>
<text text-anchor="middle" x="29.68" y="-222.71" font-family="Times,serif" font-size="14.00">a</text>
</g>
<!-- 4&#45;&gt;2 -->
<g id="edge8" class="edge">
<title>4&#45;&gt;2</title>
<path fill="none" stroke="black" d="M99.6,-73.68C101.09,-80.04 102.39,-86.66 103.18,-92.95 118.06,-210.64 118.06,-242.17 103.18,-359.86 102.8,-362.91 102.3,-366.03 101.71,-369.17"/>
<polygon fill="black" stroke="black" points="98.25,-368.62 99.6,-379.13 105.1,-370.07 98.25,-368.62"/>
<text text-anchor="middle" x="118.68" y="-222.71" font-family="Times,serif" font-size="14.00">a</text>
</g>
<!-- 4&#45;&gt;1 -->
<g id="edge9" class="edge">
<title>4&#45;&gt;1</title>
<path fill="none" stroke="black" d="M75.16,-72.56C69.31,-86.78 62.45,-103.46 56.23,-118.57"/>
<polygon fill="black" stroke="black" points="52.82,-117.65 52.25,-128.23 59.3,-120.31 52.82,-117.65"/>
<text text-anchor="middle" x="71.18" y="-96.75" font-family="Times,serif" font-size="14.00">b</text>
</g>
</g>
</svg>
