<?xml version="1.0" encoding="UTF-8" standalone="no"?>
<!DOCTYPE svg PUBLIC "-//W3C//DTD SVG 1.1//EN"
 "http://www.w3.org/Graphics/SVG/1.1/DTD/svg11.dtd">
<!-- Generated by graphviz version 2.43.0 (0)
 -->
<!-- Title: G Pages: 1 -->
<svg width="136pt" height="501pt"
 viewBox="0.00 0.00 136.37 501.41" xmlns="http://www.w3.org/2000/svg" xmlns:xlink="http://www.w3.org/1999/xlink">
<g id="graph0" class="graph" transform="scale(1 1) rotate(0) translate(4 497.41)">
<title>G</title>
<polygon fill="white" stroke="transparent" points="-4,4 -4,-497.41 132.37,-497.41 132.37,4 -4,4"/>
<!-- 0 -->
<g id="node1" class="node">
<title>0</title>
<ellipse fill="black" stroke="black" cx="90.18" cy="-491.61" rx="1.8" ry="1.8"/>
</g>
<!-- 3 -->
<g id="node2" class="node">
<title>3</title>
<ellipse fill="none" stroke="black" cx="90.18" cy="-415.34" rx="38.37" ry="37.45"/>
<text text-anchor="middle" x="90.18" y="-426.64" font-family="Times,serif" font-size="14.00">(2, 0)</text>
<text text-anchor="middle" x="90.18" y="-411.64" font-family="Times,serif" font-size="14.00">&#45;&#45;&#45;</text>
<text text-anchor="middle" x="90.18" y="-396.64" font-family="Times,serif" font-size="14.00">0</text>
</g>
<!-- 0&#45;&gt;3 -->
<g id="edge1" class="edge">
<title>0&#45;&gt;3</title>
<path fill="none" stroke="black" d="M90.18,-489.78C90.18,-486.74 90.18,-475.75 90.18,-463.16"/>
<polygon fill="black" stroke="black" points="93.68,-462.85 90.18,-452.85 86.68,-462.85 93.68,-462.85"/>
</g>
<!-- 1 -->
<g id="node3" class="node">
<title>1</title>
<ellipse fill="none" stroke="black" cx="38.18" cy="-289.38" rx="38.37" ry="37.45"/>
<text text-anchor="middle" x="38.18" y="-300.68" font-family="Times,serif" font-size="14.00">(1, 0)</text>
<text text-anchor="middle" x="38.18" y="-285.68" font-family="Times,serif" font-size="14.00">&#45;&#45;&#45;</text>
<text text-anchor="middle" x="38.18" y="-270.68" font-family="Times,serif" font-size="14.00">0</text>
</g>
<!-- 3&#45;&gt;1 -->
<g id="edge6" class="edge">
<title>3&#45;&gt;1</title>
<path fill="none" stroke="black" d="M64.25,-387.37C57.67,-379.12 51.3,-369.63 47.18,-359.86 44.2,-352.77 42.14,-344.94 40.73,-337.17"/>
<polygon fill="black" stroke="black" points="44.16,-336.43 39.23,-327.05 37.23,-337.46 44.16,-336.43"/>
<text text-anchor="middle" x="51.68" y="-348.66" font-family="Times,serif" font-size="14.00">a</text>
</g>
<!-- 4 -->
<g id="node5" class="node">
<title>4</title>
<ellipse fill="none" stroke="black" cx="90.18" cy="-37.48" rx="38.37" ry="37.45"/>
<text text-anchor="middle" x="90.18" y="-48.78" font-family="Times,serif" font-size="14.00">(2, 1)</text>
<text text-anchor="middle" x="90.18" y="-33.78" font-family="Times,serif" font-size="14.00">&#45;&#45;&#45;</text>
<text text-anchor="middle" x="90.18" y="-18.78" font-family="Times,serif" font-size="14.00">15</text>
</g>
<!-- 3&#45;&gt;4 -->
<g id="edge7" class="edge">
<title>3&#45;&gt;4</title>
<path fill="none" stroke="black" d="M90.18,-377.61C90.18,-308.9 90.18,-161 90.18,-85.26"/>
<polygon fill="black" stroke="black" points="93.68,-85.07 90.18,-75.07 86.68,-85.07 93.68,-85.07"/>
<text text-anchor="middle" x="95.18" y="-222.71" font-family="Times,serif" font-size="14.00">b</text>
</g>
<!-- 1&#45;&gt;3 -->
<g id="edge2" class="edge">
<title>1&#45;&gt;3</title>
<path fill="none" stroke="black" d="M52.38,-324.21C58.45,-338.69 65.62,-355.77 72.07,-371.15"/>
<polygon fill="black" stroke="black" points="68.88,-372.6 75.97,-380.47 75.33,-369.89 68.88,-372.6"/>
<text text-anchor="middle" x="71.68" y="-348.66" font-family="Times,serif" font-size="14.00">a</text>
</g>
<!-- 2 -->
<g id="node4" class="node">
<title>2</title>
<ellipse fill="none" stroke="black" cx="38.18" cy="-163.43" rx="38.37" ry="37.45"/>
<text text-anchor="middle" x="38.18" y="-174.73" font-family="Times,serif" font-size="14.00">(1, 1)</text>
<text text-anchor="middle" x="38.18" y="-159.73" font-family="Times,serif" font-size="14.00">&#45;&#45;&#45;</text>
<text text-anchor="middle" x="38.18" y="-144.73" font-family="Times,serif" font-size="14.00">15</text>
</g>
<!-- 1&#45;&gt;2 -->
<g id="edge3" class="edge">
<title>1&#45;&gt;2</title>
<path fill="none" stroke="black" d="M25.81,-253.58C23.21,-242.56 21.65,-230.28 23.18,-218.91 23.62,-215.7 24.19,-212.41 24.85,-209.12"/>
<polygon fill="black" stroke="black" points="28.28,-209.84 27.09,-199.31 21.46,-208.28 28.28,-209.84"/>
<text text-anchor="middle" x="28.18" y="-222.71" font-family="Times,serif" font-size="14.00">b</text>
</g>
<!-- 2&#45;&gt;1 -->
<g id="edge5" class="edge">
<title>2&#45;&gt;1</title>
<path fill="none" stroke="black" d="M38.18,-201.12C38.18,-213.88 38.18,-228.37 38.18,-241.82"/>
<polygon fill="black" stroke="black" points="34.68,-241.86 38.18,-251.86 41.68,-241.86 34.68,-241.86"/>
<text text-anchor="middle" x="43.18" y="-222.71" font-family="Times,serif" font-size="14.00">b</text>
</g>
<!-- 2&#45;&gt;4 -->
<g id="edge4" class="edge">
<title>2&#45;&gt;4</title>
<path fill="none" stroke="black" d="M39.23,-125.76C40.51,-114.88 42.89,-103.15 47.18,-92.95 50.01,-86.23 53.91,-79.65 58.2,-73.51"/>
<polygon fill="black" stroke="black" points="61.05,-75.54 64.25,-65.44 55.45,-71.34 61.05,-75.54"/>
<text text-anchor="middle" x="51.68" y="-96.75" font-family="Times,serif" font-size="14.00">a</text>
</g>
<!-- 4&#45;&gt;3 -->
<g id="edge9" class="edge">
<title>4&#45;&gt;3</title>
<path fill="none" stroke="black" d="M100.6,-73.68C102.09,-80.04 103.39,-86.66 104.18,-92.95 119.06,-210.64 119.06,-242.17 104.18,-359.86 103.8,-362.91 103.3,-366.03 102.71,-369.17"/>
<polygon fill="black" stroke="black" points="99.25,-368.62 100.6,-379.13 106.1,-370.07 99.25,-368.62"/>
<text text-anchor="middle" x="120.18" y="-222.71" font-family="Times,serif" font-size="14.00">b</text>
</g>
<!-- 4&#45;&gt;2 -->
<g id="edge8" class="edge">
<title>4&#45;&gt;2</title>
<path fill="none" stroke="black" d="M75.99,-72.31C69.92,-86.79 62.75,-103.87 56.3,-119.24"/>
<polygon fill="black" stroke="black" points="53.03,-117.98 52.39,-128.56 59.49,-120.69 53.03,-117.98"/>
<text text-anchor="middle" x="71.68" y="-96.75" font-family="Times,serif" font-size="14.00">a</text>
</g>
</g>
</svg>
