<?xml version="1.0" encoding="UTF-8" standalone="no"?>
<!DOCTYPE svg PUBLIC "-//W3C//DTD SVG 1.1//EN"
 "http://www.w3.org/Graphics/SVG/1.1/DTD/svg11.dtd">
<!-- Generated by graphviz version 2.43.0 (0)
 -->
<!-- Title: G Pages: 1 -->
<svg width="307pt" height="753pt"
 viewBox="0.00 0.00 306.79 753.32" xmlns="http://www.w3.org/2000/svg" xmlns:xlink="http://www.w3.org/1999/xlink">
<g id="graph0" class="graph" transform="scale(1 1) rotate(0) translate(4 749.32)">
<title>G</title>
<polygon fill="white" stroke="transparent" points="-4,4 -4,-749.32 302.79,-749.32 302.79,4 -4,4"/>
<!-- 0 -->
<g id="node1" class="node">
<title>0</title>
<ellipse fill="black" stroke="black" cx="161.79" cy="-743.52" rx="1.8" ry="1.8"/>
</g>
<!-- 1 -->
<g id="node2" class="node">
<title>1</title>
<ellipse fill="none" stroke="black" cx="161.79" cy="-667.24" rx="27" ry="37.45"/>
<text text-anchor="middle" x="161.79" y="-678.54" font-family="Times,serif" font-size="14.00">0</text>
<text text-anchor="middle" x="161.79" y="-663.54" font-family="Times,serif" font-size="14.00">&#45;&#45;&#45;</text>
<text text-anchor="middle" x="161.79" y="-648.54" font-family="Times,serif" font-size="14.00">0</text>
</g>
<!-- 0&#45;&gt;1 -->
<g id="edge1" class="edge">
<title>0&#45;&gt;1</title>
<path fill="none" stroke="black" d="M161.79,-741.69C161.79,-738.64 161.79,-727.65 161.79,-715.07"/>
<polygon fill="black" stroke="black" points="165.29,-714.76 161.79,-704.76 158.29,-714.76 165.29,-714.76"/>
</g>
<!-- 2 -->
<g id="node3" class="node">
<title>2</title>
<ellipse fill="none" stroke="black" cx="129.79" cy="-541.29" rx="27" ry="37.45"/>
<text text-anchor="middle" x="129.79" y="-552.59" font-family="Times,serif" font-size="14.00">1</text>
<text text-anchor="middle" x="129.79" y="-537.59" font-family="Times,serif" font-size="14.00">&#45;&#45;&#45;</text>
<text text-anchor="middle" x="129.79" y="-522.59" font-family="Times,serif" font-size="14.00">0</text>
</g>
<!-- 1&#45;&gt;2 -->
<g id="edge2" class="edge">
<title>1&#45;&gt;2</title>
<path fill="none" stroke="black" d="M152.88,-631.72C149.3,-617.86 145.13,-601.72 141.33,-586.99"/>
<polygon fill="black" stroke="black" points="144.66,-585.87 138.77,-577.06 137.88,-587.62 144.66,-585.87"/>
<text text-anchor="middle" x="151.29" y="-600.57" font-family="Times,serif" font-size="14.00">a</text>
</g>
<!-- 4 -->
<g id="node4" class="node">
<title>4</title>
<ellipse fill="none" stroke="black" cx="192.79" cy="-415.34" rx="27" ry="37.45"/>
<text text-anchor="middle" x="192.79" y="-426.64" font-family="Times,serif" font-size="14.00">3</text>
<text text-anchor="middle" x="192.79" y="-411.64" font-family="Times,serif" font-size="14.00">&#45;&#45;&#45;</text>
<text text-anchor="middle" x="192.79" y="-396.64" font-family="Times,serif" font-size="14.00">2</text>
</g>
<!-- 1&#45;&gt;4 -->
<g id="edge3" class="edge">
<title>1&#45;&gt;4</title>
<path fill="none" stroke="black" d="M166.27,-630.17C171.75,-585.97 181.05,-511 187.05,-462.6"/>
<polygon fill="black" stroke="black" points="190.56,-462.75 188.32,-452.4 183.61,-461.89 190.56,-462.75"/>
<text text-anchor="middle" x="186.79" y="-537.59" font-family="Times,serif" font-size="14.00">b</text>
</g>
<!-- 3 -->
<g id="node5" class="node">
<title>3</title>
<ellipse fill="none" stroke="black" cx="49.79" cy="-415.34" rx="27" ry="37.45"/>
<text text-anchor="middle" x="49.79" y="-426.64" font-family="Times,serif" font-size="14.00">2</text>
<text text-anchor="middle" x="49.79" y="-411.64" font-family="Times,serif" font-size="14.00">&#45;&#45;&#45;</text>
<text text-anchor="middle" x="49.79" y="-396.64" font-family="Times,serif" font-size="14.00">15</text>
</g>
<!-- 2&#45;&gt;3 -->
<g id="edge4" class="edge">
<title>2&#45;&gt;3</title>
<path fill="none" stroke="black" d="M112.04,-512.78C100.54,-494.97 85.45,-471.58 73.01,-452.3"/>
<polygon fill="black" stroke="black" points="75.86,-450.27 67.5,-443.77 69.98,-454.07 75.86,-450.27"/>
<text text-anchor="middle" x="98.29" y="-474.61" font-family="Times,serif" font-size="14.00">a</text>
</g>
<!-- 9 -->
<g id="node6" class="node">
<title>9</title>
<ellipse fill="none" stroke="black" cx="133.79" cy="-37.48" rx="27" ry="37.45"/>
<text text-anchor="middle" x="133.79" y="-48.78" font-family="Times,serif" font-size="14.00">8</text>
<text text-anchor="middle" x="133.79" y="-33.78" font-family="Times,serif" font-size="14.00">&#45;&#45;&#45;</text>
<text text-anchor="middle" x="133.79" y="-18.78" font-family="Times,serif" font-size="14.00">0</text>
</g>
<!-- 2&#45;&gt;9 -->
<g id="edge5" class="edge">
<title>2&#45;&gt;9</title>
<path fill="none" stroke="black" d="M131.59,-503.69C132.65,-479.02 133.79,-445.73 133.79,-416.34 133.79,-416.34 133.79,-416.34 133.79,-162.43 133.79,-136.96 133.79,-108.54 133.79,-85.35"/>
<polygon fill="black" stroke="black" points="137.29,-85.09 133.79,-75.09 130.29,-85.09 137.29,-85.09"/>
<text text-anchor="middle" x="138.79" y="-285.68" font-family="Times,serif" font-size="14.00">b</text>
</g>
<!-- 4&#45;&gt;9 -->
<g id="edge9" class="edge">
<title>4&#45;&gt;9</title>
<path fill="none" stroke="black" d="M189.05,-377.97C182.59,-318.17 168.08,-195.48 147.79,-92.95 147.12,-89.55 146.36,-86.03 145.56,-82.51"/>
<polygon fill="black" stroke="black" points="148.92,-81.55 143.2,-72.63 142.12,-83.17 148.92,-81.55"/>
<text text-anchor="middle" x="175.79" y="-222.71" font-family="Times,serif" font-size="14.00">b</text>
</g>
<!-- 5 -->
<g id="node8" class="node">
<title>5</title>
<ellipse fill="none" stroke="black" cx="226.79" cy="-289.38" rx="27" ry="37.45"/>
<text text-anchor="middle" x="226.79" y="-300.68" font-family="Times,serif" font-size="14.00">4</text>
<text text-anchor="middle" x="226.79" y="-285.68" font-family="Times,serif" font-size="14.00">&#45;&#45;&#45;</text>
<text text-anchor="middle" x="226.79" y="-270.68" font-family="Times,serif" font-size="14.00">0</text>
</g>
<!-- 4&#45;&gt;5 -->
<g id="edge8" class="edge">
<title>4&#45;&gt;5</title>
<path fill="none" stroke="black" d="M202.17,-380.14C206.01,-366.16 210.49,-349.82 214.57,-334.93"/>
<polygon fill="black" stroke="black" points="218.05,-335.47 217.32,-324.9 211.3,-333.62 218.05,-335.47"/>
<text text-anchor="middle" x="216.29" y="-348.66" font-family="Times,serif" font-size="14.00">a</text>
</g>
<!-- 3&#45;&gt;9 -->
<g id="edge6" class="edge">
<title>3&#45;&gt;9</title>
<path fill="none" stroke="black" d="M34.1,-384.48C26.31,-367.99 17.74,-346.84 13.79,-326.86 -3.53,-239.24 -7.09,-211.44 18.79,-125.95 29.94,-89.12 69.02,-65.02 98.55,-51.62"/>
<polygon fill="black" stroke="black" points="99.97,-54.82 107.76,-47.64 97.19,-48.4 99.97,-54.82"/>
<text text-anchor="middle" x="5.29" y="-222.71" font-family="Times,serif" font-size="14.00">a</text>
</g>
<!-- 7 -->
<g id="node7" class="node">
<title>7</title>
<ellipse fill="none" stroke="black" cx="49.79" cy="-289.38" rx="27" ry="37.45"/>
<text text-anchor="middle" x="49.79" y="-300.68" font-family="Times,serif" font-size="14.00">6</text>
<text text-anchor="middle" x="49.79" y="-285.68" font-family="Times,serif" font-size="14.00">&#45;&#45;&#45;</text>
<text text-anchor="middle" x="49.79" y="-270.68" font-family="Times,serif" font-size="14.00">0</text>
</g>
<!-- 3&#45;&gt;7 -->
<g id="edge7" class="edge">
<title>3&#45;&gt;7</title>
<path fill="none" stroke="black" d="M49.79,-377.82C49.79,-365.07 49.79,-350.58 49.79,-337.12"/>
<polygon fill="black" stroke="black" points="53.29,-337.07 49.79,-327.07 46.29,-337.07 53.29,-337.07"/>
<text text-anchor="middle" x="54.79" y="-348.66" font-family="Times,serif" font-size="14.00">b</text>
</g>
<!-- 9&#45;&gt;9 -->
<g id="edge18" class="edge">
<title>9&#45;&gt;9</title>
<path fill="none" stroke="black" d="M160.59,-43.28C170.57,-43.47 178.79,-41.53 178.79,-37.48 178.79,-34.94 175.58,-33.24 170.73,-32.36"/>
<polygon fill="black" stroke="black" points="170.8,-28.86 160.59,-31.68 170.33,-35.84 170.8,-28.86"/>
<text text-anchor="middle" x="183.29" y="-33.78" font-family="Times,serif" font-size="14.00">a</text>
</g>
<!-- 9&#45;&gt;9 -->
<g id="edge19" class="edge">
<title>9&#45;&gt;9</title>
<path fill="none" stroke="black" d="M160.01,-47.91C178.49,-51.19 196.79,-47.71 196.79,-37.48 196.79,-29.16 184.71,-25.31 170.26,-25.91"/>
<polygon fill="black" stroke="black" points="169.56,-22.47 160.01,-27.04 170.33,-29.43 169.56,-22.47"/>
<text text-anchor="middle" x="201.79" y="-33.78" font-family="Times,serif" font-size="14.00">b</text>
</g>
<!-- 7&#45;&gt;9 -->
<g id="edge15" class="edge">
<title>7&#45;&gt;9</title>
<path fill="none" stroke="black" d="M37.22,-256.09C26.09,-222.21 14.24,-168.13 32.79,-125.95 46.13,-95.64 76,-71.93 99.82,-56.89"/>
<polygon fill="black" stroke="black" points="101.87,-59.74 108.6,-51.55 98.24,-53.75 101.87,-59.74"/>
<text text-anchor="middle" x="37.79" y="-159.73" font-family="Times,serif" font-size="14.00">b</text>
</g>
<!-- 8 -->
<g id="node10" class="node">
<title>8</title>
<ellipse fill="none" stroke="black" cx="78.79" cy="-163.43" rx="27" ry="37.45"/>
<text text-anchor="middle" x="78.79" y="-174.73" font-family="Times,serif" font-size="14.00">7</text>
<text text-anchor="middle" x="78.79" y="-159.73" font-family="Times,serif" font-size="14.00">&#45;&#45;&#45;</text>
<text text-anchor="middle" x="78.79" y="-144.73" font-family="Times,serif" font-size="14.00">12</text>
</g>
<!-- 7&#45;&gt;8 -->
<g id="edge14" class="edge">
<title>7&#45;&gt;8</title>
<path fill="none" stroke="black" d="M57.95,-253.53C61.16,-239.8 64.89,-223.85 68.3,-209.28"/>
<polygon fill="black" stroke="black" points="71.73,-209.99 70.6,-199.46 64.91,-208.4 71.73,-209.99"/>
<text text-anchor="middle" x="70.29" y="-222.71" font-family="Times,serif" font-size="14.00">a</text>
</g>
<!-- 5&#45;&gt;9 -->
<g id="edge10" class="edge">
<title>5&#45;&gt;9</title>
<path fill="none" stroke="black" d="M225.09,-251.79C221.88,-210.93 212.59,-143.88 185.79,-92.95 180.34,-82.59 172.33,-72.81 164.23,-64.47"/>
<polygon fill="black" stroke="black" points="166.43,-61.73 156.83,-57.24 161.54,-66.74 166.43,-61.73"/>
<text text-anchor="middle" x="222.29" y="-159.73" font-family="Times,serif" font-size="14.00">a</text>
</g>
<!-- 6 -->
<g id="node9" class="node">
<title>6</title>
<ellipse fill="none" stroke="black" cx="271.79" cy="-163.43" rx="27" ry="37.45"/>
<text text-anchor="middle" x="271.79" y="-174.73" font-family="Times,serif" font-size="14.00">5</text>
<text text-anchor="middle" x="271.79" y="-159.73" font-family="Times,serif" font-size="14.00">&#45;&#45;&#45;</text>
<text text-anchor="middle" x="271.79" y="-144.73" font-family="Times,serif" font-size="14.00">20</text>
</g>
<!-- 5&#45;&gt;6 -->
<g id="edge11" class="edge">
<title>5&#45;&gt;6</title>
<path fill="none" stroke="black" d="M238.73,-255.49C244.12,-240.64 250.56,-222.91 256.31,-207.06"/>
<polygon fill="black" stroke="black" points="259.67,-208.07 259.79,-197.48 253.09,-205.68 259.67,-208.07"/>
<text text-anchor="middle" x="256.79" y="-222.71" font-family="Times,serif" font-size="14.00">b</text>
</g>
<!-- 6&#45;&gt;9 -->
<g id="edge12" class="edge">
<title>6&#45;&gt;9</title>
<path fill="none" stroke="black" d="M257.12,-131.7C249.87,-118.68 240.21,-104 228.79,-92.95 211.53,-76.26 188.17,-62.77 168.93,-53.4"/>
<polygon fill="black" stroke="black" points="170.4,-50.22 159.87,-49.13 167.42,-56.56 170.4,-50.22"/>
<text text-anchor="middle" x="244.29" y="-96.75" font-family="Times,serif" font-size="14.00">a</text>
</g>
<!-- 6&#45;&gt;9 -->
<g id="edge13" class="edge">
<title>6&#45;&gt;9</title>
<path fill="none" stroke="black" d="M268,-126.02C265.27,-114.41 260.64,-102.2 252.79,-92.95 231.66,-68.08 196.77,-53.97 170.22,-46.37"/>
<polygon fill="black" stroke="black" points="171.07,-42.97 160.5,-43.77 169.26,-49.74 171.07,-42.97"/>
<text text-anchor="middle" x="266.79" y="-96.75" font-family="Times,serif" font-size="14.00">b</text>
</g>
<!-- 8&#45;&gt;9 -->
<g id="edge16" class="edge">
<title>8&#45;&gt;9</title>
<path fill="none" stroke="black" d="M72.8,-126.73C72.34,-115.54 73.38,-103.4 77.79,-92.95 82.95,-80.73 92.35,-69.89 101.99,-61.16"/>
<polygon fill="black" stroke="black" points="104.33,-63.77 109.7,-54.63 99.81,-58.43 104.33,-63.77"/>
<text text-anchor="middle" x="82.29" y="-96.75" font-family="Times,serif" font-size="14.00">a</text>
</g>
<!-- 8&#45;&gt;9 -->
<g id="edge17" class="edge">
<title>8&#45;&gt;9</title>
<path fill="none" stroke="black" d="M92.67,-131.15C99.64,-115.44 108.17,-96.22 115.65,-79.36"/>
<polygon fill="black" stroke="black" points="119.06,-80.31 119.92,-69.75 112.66,-77.47 119.06,-80.31"/>
<text text-anchor="middle" x="113.79" y="-96.75" font-family="Times,serif" font-size="14.00">b</text>
</g>
</g>
</svg>
