<?xml version="1.0" encoding="UTF-8" standalone="no"?>
<!DOCTYPE svg PUBLIC "-//W3C//DTD SVG 1.1//EN"
 "http://www.w3.org/Graphics/SVG/1.1/DTD/svg11.dtd">
<!-- Generated by graphviz version 2.43.0 (0)
 -->
<!-- Title: G Pages: 1 -->
<svg width="312pt" height="753pt"
 viewBox="0.00 0.00 311.70 753.32" xmlns="http://www.w3.org/2000/svg" xmlns:xlink="http://www.w3.org/1999/xlink">
<g id="graph0" class="graph" transform="scale(1 1) rotate(0) translate(4 749.32)">
<title>G</title>
<polygon fill="white" stroke="transparent" points="-4,4 -4,-749.32 307.7,-749.32 307.7,4 -4,4"/>
<!-- 0 -->
<g id="node1" class="node">
<title>0</title>
<ellipse fill="black" stroke="black" cx="76.7" cy="-743.52" rx="1.8" ry="1.8"/>
</g>
<!-- 1 -->
<g id="node2" class="node">
<title>1</title>
<ellipse fill="none" stroke="black" cx="76.7" cy="-667.24" rx="27" ry="37.45"/>
<text text-anchor="middle" x="76.7" y="-678.54" font-family="Times,serif" font-size="14.00">0</text>
<text text-anchor="middle" x="76.7" y="-663.54" font-family="Times,serif" font-size="14.00">&#45;&#45;&#45;</text>
<text text-anchor="middle" x="76.7" y="-648.54" font-family="Times,serif" font-size="14.00">0</text>
</g>
<!-- 0&#45;&gt;1 -->
<g id="edge1" class="edge">
<title>0&#45;&gt;1</title>
<path fill="none" stroke="black" d="M76.7,-741.69C76.7,-738.64 76.7,-727.65 76.7,-715.07"/>
<polygon fill="black" stroke="black" points="80.2,-714.76 76.7,-704.76 73.2,-714.76 80.2,-714.76"/>
</g>
<!-- 4 -->
<g id="node3" class="node">
<title>4</title>
<ellipse fill="none" stroke="black" cx="48.7" cy="-415.34" rx="27" ry="37.45"/>
<text text-anchor="middle" x="48.7" y="-426.64" font-family="Times,serif" font-size="14.00">3</text>
<text text-anchor="middle" x="48.7" y="-411.64" font-family="Times,serif" font-size="14.00">&#45;&#45;&#45;</text>
<text text-anchor="middle" x="48.7" y="-396.64" font-family="Times,serif" font-size="14.00">2</text>
</g>
<!-- 1&#45;&gt;4 -->
<g id="edge2" class="edge">
<title>1&#45;&gt;4</title>
<path fill="none" stroke="black" d="M72.66,-630.17C67.71,-585.97 59.31,-511 53.89,-462.6"/>
<polygon fill="black" stroke="black" points="57.34,-461.95 52.74,-452.4 50.38,-462.72 57.34,-461.95"/>
<text text-anchor="middle" x="71.7" y="-537.59" font-family="Times,serif" font-size="14.00">b</text>
</g>
<!-- 2 -->
<g id="node4" class="node">
<title>2</title>
<ellipse fill="none" stroke="black" cx="137.7" cy="-541.29" rx="27" ry="37.45"/>
<text text-anchor="middle" x="137.7" y="-552.59" font-family="Times,serif" font-size="14.00">1</text>
<text text-anchor="middle" x="137.7" y="-537.59" font-family="Times,serif" font-size="14.00">&#45;&#45;&#45;</text>
<text text-anchor="middle" x="137.7" y="-522.59" font-family="Times,serif" font-size="14.00">0</text>
</g>
<!-- 1&#45;&gt;2 -->
<g id="edge3" class="edge">
<title>1&#45;&gt;2</title>
<path fill="none" stroke="black" d="M91.63,-635.92C99.6,-619.71 109.52,-599.56 118.11,-582.11"/>
<polygon fill="black" stroke="black" points="121.45,-583.25 122.72,-572.73 115.17,-580.16 121.45,-583.25"/>
<text text-anchor="middle" x="115.2" y="-600.57" font-family="Times,serif" font-size="14.00">a</text>
</g>
<!-- 9 -->
<g id="node5" class="node">
<title>9</title>
<ellipse fill="none" stroke="black" cx="137.7" cy="-37.48" rx="27" ry="37.45"/>
<text text-anchor="middle" x="137.7" y="-48.78" font-family="Times,serif" font-size="14.00">8</text>
<text text-anchor="middle" x="137.7" y="-33.78" font-family="Times,serif" font-size="14.00">&#45;&#45;&#45;</text>
<text text-anchor="middle" x="137.7" y="-18.78" font-family="Times,serif" font-size="14.00">0</text>
</g>
<!-- 4&#45;&gt;9 -->
<g id="edge8" class="edge">
<title>4&#45;&gt;9</title>
<path fill="none" stroke="black" d="M33.01,-384.48C25.22,-367.99 16.65,-346.84 12.7,-326.86 -4.64,-239.16 -5.67,-210.73 22.7,-125.95 34.79,-89.83 73,-65.79 102.08,-52.2"/>
<polygon fill="black" stroke="black" points="103.83,-55.25 111.55,-47.99 100.99,-48.86 103.83,-55.25"/>
<text text-anchor="middle" x="6.7" y="-222.71" font-family="Times,serif" font-size="14.00">b</text>
</g>
<!-- 5 -->
<g id="node8" class="node">
<title>5</title>
<ellipse fill="none" stroke="black" cx="48.7" cy="-289.38" rx="27" ry="37.45"/>
<text text-anchor="middle" x="48.7" y="-300.68" font-family="Times,serif" font-size="14.00">4</text>
<text text-anchor="middle" x="48.7" y="-285.68" font-family="Times,serif" font-size="14.00">&#45;&#45;&#45;</text>
<text text-anchor="middle" x="48.7" y="-270.68" font-family="Times,serif" font-size="14.00">0</text>
</g>
<!-- 4&#45;&gt;5 -->
<g id="edge9" class="edge">
<title>4&#45;&gt;5</title>
<path fill="none" stroke="black" d="M48.7,-377.82C48.7,-365.07 48.7,-350.58 48.7,-337.12"/>
<polygon fill="black" stroke="black" points="52.2,-337.07 48.7,-327.07 45.2,-337.07 52.2,-337.07"/>
<text text-anchor="middle" x="53.2" y="-348.66" font-family="Times,serif" font-size="14.00">a</text>
</g>
<!-- 2&#45;&gt;9 -->
<g id="edge4" class="edge">
<title>2&#45;&gt;9</title>
<path fill="none" stroke="black" d="M137.7,-503.68C137.7,-479 137.7,-445.71 137.7,-416.34 137.7,-416.34 137.7,-416.34 137.7,-162.43 137.7,-136.96 137.7,-108.54 137.7,-85.35"/>
<polygon fill="black" stroke="black" points="141.2,-85.09 137.7,-75.09 134.2,-85.09 141.2,-85.09"/>
<text text-anchor="middle" x="142.7" y="-285.68" font-family="Times,serif" font-size="14.00">b</text>
</g>
<!-- 3 -->
<g id="node6" class="node">
<title>3</title>
<ellipse fill="none" stroke="black" cx="192.7" cy="-415.34" rx="27" ry="37.45"/>
<text text-anchor="middle" x="192.7" y="-426.64" font-family="Times,serif" font-size="14.00">2</text>
<text text-anchor="middle" x="192.7" y="-411.64" font-family="Times,serif" font-size="14.00">&#45;&#45;&#45;</text>
<text text-anchor="middle" x="192.7" y="-396.64" font-family="Times,serif" font-size="14.00">15</text>
</g>
<!-- 2&#45;&gt;3 -->
<g id="edge5" class="edge">
<title>2&#45;&gt;3</title>
<path fill="none" stroke="black" d="M151.58,-509.01C158.55,-493.3 167.08,-474.08 174.57,-457.22"/>
<polygon fill="black" stroke="black" points="177.97,-458.17 178.83,-447.61 171.57,-455.33 177.97,-458.17"/>
<text text-anchor="middle" x="172.2" y="-474.61" font-family="Times,serif" font-size="14.00">a</text>
</g>
<!-- 9&#45;&gt;9 -->
<g id="edge18" class="edge">
<title>9&#45;&gt;9</title>
<path fill="none" stroke="black" d="M164.5,-43.28C174.48,-43.47 182.7,-41.53 182.7,-37.48 182.7,-34.94 179.49,-33.24 174.65,-32.36"/>
<polygon fill="black" stroke="black" points="174.71,-28.86 164.5,-31.68 174.24,-35.84 174.71,-28.86"/>
<text text-anchor="middle" x="187.7" y="-33.78" font-family="Times,serif" font-size="14.00">b</text>
</g>
<!-- 9&#45;&gt;9 -->
<g id="edge19" class="edge">
<title>9&#45;&gt;9</title>
<path fill="none" stroke="black" d="M163.92,-47.91C182.4,-51.19 200.7,-47.71 200.7,-37.48 200.7,-29.16 188.62,-25.31 174.18,-25.91"/>
<polygon fill="black" stroke="black" points="173.47,-22.47 163.92,-27.04 174.24,-29.43 173.47,-22.47"/>
<text text-anchor="middle" x="205.2" y="-33.78" font-family="Times,serif" font-size="14.00">a</text>
</g>
<!-- 3&#45;&gt;9 -->
<g id="edge7" class="edge">
<title>3&#45;&gt;9</title>
<path fill="none" stroke="black" d="M189.55,-377.96C184.04,-318.14 171.33,-195.43 151.7,-92.95 151.05,-89.54 150.31,-86.03 149.51,-82.5"/>
<polygon fill="black" stroke="black" points="152.89,-81.54 147.17,-72.62 146.07,-83.16 152.89,-81.54"/>
<text text-anchor="middle" x="177.2" y="-222.71" font-family="Times,serif" font-size="14.00">a</text>
</g>
<!-- 7 -->
<g id="node7" class="node">
<title>7</title>
<ellipse fill="none" stroke="black" cx="230.7" cy="-289.38" rx="27" ry="37.45"/>
<text text-anchor="middle" x="230.7" y="-300.68" font-family="Times,serif" font-size="14.00">6</text>
<text text-anchor="middle" x="230.7" y="-285.68" font-family="Times,serif" font-size="14.00">&#45;&#45;&#45;</text>
<text text-anchor="middle" x="230.7" y="-270.68" font-family="Times,serif" font-size="14.00">0</text>
</g>
<!-- 3&#45;&gt;7 -->
<g id="edge6" class="edge">
<title>3&#45;&gt;7</title>
<path fill="none" stroke="black" d="M203.09,-380.47C207.49,-366.12 212.67,-349.22 217.34,-333.96"/>
<polygon fill="black" stroke="black" points="220.75,-334.8 220.33,-324.21 214.06,-332.75 220.75,-334.8"/>
<text text-anchor="middle" x="218.7" y="-348.66" font-family="Times,serif" font-size="14.00">b</text>
</g>
<!-- 7&#45;&gt;9 -->
<g id="edge14" class="edge">
<title>7&#45;&gt;9</title>
<path fill="none" stroke="black" d="M229,-251.79C225.79,-210.93 216.51,-143.88 189.7,-92.95 184.25,-82.59 176.25,-72.81 168.14,-64.47"/>
<polygon fill="black" stroke="black" points="170.35,-61.73 160.75,-57.24 165.45,-66.74 170.35,-61.73"/>
<text text-anchor="middle" x="226.7" y="-159.73" font-family="Times,serif" font-size="14.00">b</text>
</g>
<!-- 8 -->
<g id="node10" class="node">
<title>8</title>
<ellipse fill="none" stroke="black" cx="276.7" cy="-163.43" rx="27" ry="37.45"/>
<text text-anchor="middle" x="276.7" y="-174.73" font-family="Times,serif" font-size="14.00">7</text>
<text text-anchor="middle" x="276.7" y="-159.73" font-family="Times,serif" font-size="14.00">&#45;&#45;&#45;</text>
<text text-anchor="middle" x="276.7" y="-144.73" font-family="Times,serif" font-size="14.00">12</text>
</g>
<!-- 7&#45;&gt;8 -->
<g id="edge15" class="edge">
<title>7&#45;&gt;8</title>
<path fill="none" stroke="black" d="M242.79,-255.82C248.35,-240.85 255.01,-222.9 260.95,-206.89"/>
<polygon fill="black" stroke="black" points="264.34,-207.8 264.54,-197.21 257.78,-205.37 264.34,-207.8"/>
<text text-anchor="middle" x="260.2" y="-222.71" font-family="Times,serif" font-size="14.00">a</text>
</g>
<!-- 5&#45;&gt;9 -->
<g id="edge11" class="edge">
<title>5&#45;&gt;9</title>
<path fill="none" stroke="black" d="M37.75,-254.82C28.62,-220.88 19.73,-167.6 37.7,-125.95 50.75,-95.72 80.35,-72 103.97,-56.94"/>
<polygon fill="black" stroke="black" points="106,-59.8 112.69,-51.59 102.34,-53.83 106,-59.8"/>
<text text-anchor="middle" x="42.2" y="-159.73" font-family="Times,serif" font-size="14.00">a</text>
</g>
<!-- 6 -->
<g id="node9" class="node">
<title>6</title>
<ellipse fill="none" stroke="black" cx="82.7" cy="-163.43" rx="27" ry="37.45"/>
<text text-anchor="middle" x="82.7" y="-174.73" font-family="Times,serif" font-size="14.00">5</text>
<text text-anchor="middle" x="82.7" y="-159.73" font-family="Times,serif" font-size="14.00">&#45;&#45;&#45;</text>
<text text-anchor="middle" x="82.7" y="-144.73" font-family="Times,serif" font-size="14.00">20</text>
</g>
<!-- 5&#45;&gt;6 -->
<g id="edge10" class="edge">
<title>5&#45;&gt;6</title>
<path fill="none" stroke="black" d="M58.08,-254.18C61.92,-240.21 66.4,-223.86 70.49,-208.97"/>
<polygon fill="black" stroke="black" points="73.97,-209.52 73.24,-198.95 67.22,-207.67 73.97,-209.52"/>
<text text-anchor="middle" x="72.7" y="-222.71" font-family="Times,serif" font-size="14.00">b</text>
</g>
<!-- 6&#45;&gt;9 -->
<g id="edge12" class="edge">
<title>6&#45;&gt;9</title>
<path fill="none" stroke="black" d="M76.71,-126.73C76.26,-115.54 77.29,-103.4 81.7,-92.95 86.87,-80.73 96.26,-69.89 105.9,-61.16"/>
<polygon fill="black" stroke="black" points="108.24,-63.77 113.61,-54.63 103.72,-58.43 108.24,-63.77"/>
<text text-anchor="middle" x="86.7" y="-96.75" font-family="Times,serif" font-size="14.00">b</text>
</g>
<!-- 6&#45;&gt;9 -->
<g id="edge13" class="edge">
<title>6&#45;&gt;9</title>
<path fill="none" stroke="black" d="M96.58,-131.15C103.55,-115.44 112.08,-96.22 119.57,-79.36"/>
<polygon fill="black" stroke="black" points="122.97,-80.31 123.83,-69.75 116.57,-77.47 122.97,-80.31"/>
<text text-anchor="middle" x="117.2" y="-96.75" font-family="Times,serif" font-size="14.00">a</text>
</g>
<!-- 8&#45;&gt;9 -->
<g id="edge16" class="edge">
<title>8&#45;&gt;9</title>
<path fill="none" stroke="black" d="M261.77,-132.06C254.3,-118.95 244.36,-104.11 232.7,-92.95 215.35,-76.35 191.99,-62.86 172.78,-53.47"/>
<polygon fill="black" stroke="black" points="174.26,-50.3 163.72,-49.19 171.27,-56.62 174.26,-50.3"/>
<text text-anchor="middle" x="248.7" y="-96.75" font-family="Times,serif" font-size="14.00">b</text>
</g>
<!-- 8&#45;&gt;9 -->
<g id="edge17" class="edge">
<title>8&#45;&gt;9</title>
<path fill="none" stroke="black" d="M272.93,-126C270.21,-114.4 265.57,-102.19 257.7,-92.95 236.32,-67.86 200.99,-53.76 174.19,-46.22"/>
<polygon fill="black" stroke="black" points="174.94,-42.8 164.38,-43.65 173.17,-49.57 174.94,-42.8"/>
<text text-anchor="middle" x="271.2" y="-96.75" font-family="Times,serif" font-size="14.00">a</text>
</g>
</g>
</svg>
